<?xml version="1.0" encoding="utf-8"?>
<!-- Generator: Adobe Illustrator 16.0.3, SVG Export Plug-In . SVG Version: 6.00 Build 0)  -->
<!DOCTYPE svg PUBLIC "-//W3C//DTD SVG 1.1//EN" "http://www.w3.org/Graphics/SVG/1.1/DTD/svg11.dtd">
<svg version="1.1" id="Layer_1" xmlns="http://www.w3.org/2000/svg" xmlns:xlink="http://www.w3.org/1999/xlink" x="0px" y="0px"
	 width="595.279px" height="841.891px" viewBox="0 0 595.279 841.891" enable-background="new 0 0 595.279 841.891"
	 xml:space="preserve">
<g>
	<path fill="#317BBF" d="M459.302,481.38c0,0,0,3.021,3.022,3.021c0,0,3.021,0,3.021-3.021
		C465.346,481.38,462.324,481.38,459.302,481.38L459.302,481.38z"/>
	<path fill="#317BBF" d="M477.433,469.293c3.021,0,9.065,0,12.087,0C486.498,466.271,483.476,466.271,477.433,469.293z"/>
	<path fill="#317BBF" d="M205.478,363.532c3.021,0,6.043,0,9.064,0C211.521,360.511,208.499,360.511,205.478,363.532z"/>
	<path fill="#317BBF" d="M341.455,484.401c3.021,0,9.064,0,12.087,0C350.52,481.38,344.477,484.401,341.455,484.401z"/>
	<path fill="#317BBF" d="M477.433,354.467C480.454,354.467,480.454,354.467,477.433,354.467L477.433,354.467
		c9.065,0,15.108,0,24.174,0c3.021,0,6.043,0,9.065,0c3.021,0,6.043,0,9.064,0c-3.021,0-9.064-3.022-12.087,0
		c-3.021,0-3.021,0-6.043,0l0,0l0,0l0,0l0,0c-6.044,0-12.087,0-21.152,0c-3.021,0-6.044,0-6.044,0c-3.021,0-6.043,0-9.064,0
		C471.389,354.467,474.411,354.467,477.433,354.467z"/>
	<path fill="#317BBF" d="M392.824,487.423c3.021,0,6.043,0,9.065,0C398.867,484.401,395.846,487.423,392.824,487.423z"/>
	<path fill="#317BBF" d="M426.064,487.423c3.021,0,6.043,0,6.043,0C429.085,484.401,429.085,484.401,426.064,487.423z"/>
	<path fill="#317BBF" d="M389.803,481.38C389.803,481.38,386.781,481.38,389.803,481.38L389.803,481.38L389.803,481.38
		c-3.022,0-6.044,3.021-6.044,3.021c-3.021-3.021-6.043,0-9.065,0h-3.021h3.021c3.022,3.021,6.044,0,6.044,0
		C383.759,484.401,386.781,484.401,389.803,481.38C389.803,484.401,389.803,484.401,389.803,481.38c3.021,3.021,6.043,3.021,3.021,0
		C392.824,478.357,392.824,478.357,389.803,481.38z"/>
	<path fill="#317BBF" d="M586.215,366.554L586.215,366.554c-3.022,0-6.044,0-9.065,0s-3.021,0-6.044,0h3.022
		C577.15,366.554,580.171,366.554,586.215,366.554z"/>
	<path fill="#317BBF" d="M323.324,357.489C326.346,357.489,326.346,357.489,323.324,357.489
		C326.346,357.489,326.346,357.489,323.324,357.489C323.324,354.467,323.324,357.489,323.324,357.489c-3.021,0-6.043,0-6.043,0
		C320.303,357.489,320.303,360.511,323.324,357.489z"/>
	<path fill="#317BBF" d="M359.585,484.401c0,0,3.021,0,6.044,0C362.607,484.401,362.607,481.38,359.585,484.401
		C359.585,481.38,359.585,484.401,359.585,484.401z"/>
	<path fill="#317BBF" d="M471.389,484.401c3.022,0,6.044,0,9.065,0C477.433,481.38,474.411,481.38,471.389,484.401z"/>
	<path fill="#317BBF" d="M365.629,354.467c0-3.022-3.022-3.022-6.044-3.022v3.022C362.607,354.467,362.607,351.445,365.629,354.467z
		"/>
	<path fill="#317BBF" d="M568.084,420.945c3.021,0,6.044,3.021,6.044,0C571.106,420.945,568.084,420.945,568.084,420.945z"/>
	<path fill="#317BBF" d="M441.172,475.336c3.021,0,6.043,0,9.065,0C447.215,472.314,447.215,472.314,441.172,475.336z"/>
	<path fill="#317BBF" d="M99.717,369.576C99.717,369.576,99.717,366.554,99.717,369.576c-3.021,0-3.021,0-3.021,0
		S96.696,369.576,99.717,369.576L99.717,369.576z"/>
	<path fill="#317BBF" d="M471.389,469.293c3.022,0,6.044,0,6.044,0S474.411,466.271,471.389,469.293z"/>
	<polygon fill="#317BBF" points="477.433,469.293 477.433,469.293 477.433,469.293 	"/>
	<path fill="#317BBF" d="M66.478,369.576c0,3.022,3.021,3.022,6.044,3.022c0,0,3.021,3.021,3.021,0v-3.022h-3.021
		C69.499,369.576,69.499,369.576,66.478,369.576L66.478,369.576L66.478,369.576L66.478,369.576z"/>
	<path fill="#317BBF" d="M12.087,472.314c3.021,0,6.043,0,6.043,0C15.109,472.314,15.109,472.314,12.087,472.314z"/>
	<path fill="#317BBF" d="M27.196,478.357L27.196,478.357c3.021,0,6.043,0,9.065,0l0,0C33.239,478.357,30.217,478.357,27.196,478.357
		z"/>
	<path fill="#317BBF" d="M356.564,357.489c-3.021,0-3.021-3.021-6.044,0C353.542,357.489,356.564,357.489,356.564,357.489z"/>
	<path fill="#317BBF" d="M244.76,363.532c3.021,0,3.021,0,6.043,0C250.803,360.511,247.781,360.511,244.76,363.532
		c0-3.021-3.021-3.021-3.021-3.021h-3.022h3.022C244.76,360.511,244.76,360.511,244.76,363.532z"/>
	<path fill="#317BBF" d="M404.911,481.38c3.021,3.021,3.021,0,6.043,0C407.933,481.38,407.933,481.38,404.911,481.38z"/>
	<path fill="#317BBF" d="M453.259,481.38c-3.021,0-6.044,0-9.065,0l0,0C447.215,484.401,450.238,484.401,453.259,481.38
		C450.238,484.401,450.238,484.401,453.259,481.38z"/>
	<path fill="#317BBF" d="M78.565,369.576L78.565,369.576C78.565,369.576,78.565,366.554,78.565,369.576
		C78.565,366.554,75.543,366.554,78.565,369.576C75.543,369.576,75.543,369.576,78.565,369.576z"/>
	<path fill="#317BBF" d="M377.716,487.423c-3.022,0-6.044,0-9.065,0C371.672,490.444,374.694,490.444,377.716,487.423z"/>
	<path fill="#317BBF" d="M450.238,484.401c3.021,0,6.043,0,9.064,0C456.281,484.401,453.259,484.401,450.238,484.401z"/>
	<path fill="#317BBF" d="M108.782,372.598L108.782,372.598C108.782,369.576,108.782,369.576,108.782,372.598
		C108.782,369.576,105.76,369.576,108.782,372.598C105.76,372.598,105.76,372.598,108.782,372.598z"/>
	<path fill="#317BBF" d="M154.108,484.401c3.022,0,3.022,0,6.044,0C157.13,481.38,154.108,481.38,154.108,484.401z"/>
	<path fill="#317BBF" d="M459.302,469.293C459.302,469.293,459.302,472.314,459.302,469.293c3.022,0,3.022,3.021,6.044,0
		C462.324,469.293,462.324,469.293,459.302,469.293z"/>
	<path fill="#317BBF" d="M389.803,354.467C389.803,354.467,389.803,351.445,389.803,354.467
		C386.781,354.467,386.781,354.467,389.803,354.467C386.781,354.467,389.803,354.467,389.803,354.467L389.803,354.467z"/>
	<path fill="#317BBF" d="M438.151,478.357c3.021,0,3.021,0,6.043,0l0,0C438.151,475.336,438.151,475.336,438.151,478.357z"/>
	<path fill="#317BBF" d="M444.194,478.357c3.021,0,3.021,0,6.044,0C447.215,475.336,444.194,475.336,444.194,478.357z"/>
	<path fill="#317BBF" d="M154.108,478.357c-3.021,0-6.043,0-9.064,0c0-3.021-3.022,0-3.022-3.021c-3.021,0-3.021,0-9.064,0
		c3.021,0,6.043,0,6.043,0s3.021,3.021,6.044,3.021C148.065,478.357,151.086,478.357,154.108,478.357L154.108,478.357z"/>
	<path fill="#317BBF" d="M420.02,478.357c-3.021,0-3.021,3.022-6.043,3.022h-3.022c0,0,0,3.021,3.022,3.021c3.021,0,3.021,0,6.043,0
		s3.021,0,6.044,0l0,0C423.041,475.336,420.02,478.357,420.02,478.357z"/>
	<path fill="#317BBF" d="M577.15,387.706L577.15,387.706c3.021,0,3.021,0,3.021,0c3.022,0,6.044,0,9.065,0l0,0
		c-3.021,0-6.044,0-9.065,0H577.15z"/>
	<path fill="#317BBF" d="M211.521,366.554L211.521,366.554c3.021,0,3.021,0,3.021,0H211.521L211.521,366.554z"/>
	<path fill="#317BBF" d="M540.889,363.532c-3.021,0-3.021,0-6.043,0C537.867,363.532,537.867,363.532,540.889,363.532z"/>
	<path fill="#317BBF" d="M202.455,363.532c-3.021,0-3.021,0-3.021,0c-3.021-3.021-3.021,0-6.043,0c3.021,0,3.021,0,6.043,0
		C199.434,366.554,202.455,363.532,202.455,363.532z"/>
	<path fill="#317BBF" d="M138.999,363.532c-3.021,0-3.021,0-3.021,0S135.978,363.532,138.999,363.532z"/>
	<path fill="#317BBF" d="M519.737,360.511c-3.021,0-6.043,0-6.043,0S516.715,360.511,519.737,360.511z"/>
	<path fill="#317BBF" d="M99.717,372.598c-3.021,0-3.021,0-3.021,0H99.717L99.717,372.598z"/>
	<path fill="#317BBF" d="M63.456,372.598L63.456,372.598h3.021C66.478,372.598,66.478,372.598,63.456,372.598L63.456,372.598
		C60.435,372.598,60.435,372.598,63.456,372.598C60.435,372.598,60.435,372.598,63.456,372.598L63.456,372.598z"/>
	<path fill="#317BBF" d="M51.369,375.619L51.369,375.619c3.021,0,6.043,0,6.043-3.021C54.391,372.598,54.391,372.598,51.369,375.619
		C51.369,369.576,48.348,372.598,51.369,375.619c-3.021,0-3.021,0-3.021,0S48.348,375.619,51.369,375.619z"/>
	<path fill="#317BBF" d="M256.847,363.532c-3.021,0-3.021,0-6.044,0C253.825,366.554,253.825,363.532,256.847,363.532z"/>
	<path fill="#317BBF" d="M480.454,481.38C480.454,481.38,480.454,484.401,480.454,481.38
		C483.476,484.401,483.476,484.401,480.454,481.38C483.476,481.38,483.476,481.38,480.454,481.38
		C483.476,481.38,483.476,481.38,480.454,481.38z"/>
	<path fill="#317BBF" d="M205.478,360.511c3.021,0,3.021,0,6.043,0C208.499,357.489,208.499,357.489,205.478,360.511z"/>
	<path fill="#317BBF" d="M513.694,357.489c3.021,0,3.021,0,6.043,0C516.715,357.489,516.715,357.489,513.694,357.489z"/>
	<path fill="#317BBF" d="M413.977,354.467L413.977,354.467c-3.022,0-6.044,0-3.022,0H413.977z"/>
	<path fill="#317BBF" d="M453.259,351.445c3.021,0,3.021,0,6.043,0C456.281,351.445,453.259,351.445,453.259,351.445z"/>
	<path fill="#317BBF" d="M265.912,363.532C265.912,363.532,268.934,363.532,265.912,363.532L265.912,363.532L265.912,363.532z"/>
	<path fill="#317BBF" d="M565.063,396.771c-3.021,0-6.043,0-9.065,3.021C562.041,399.793,565.063,399.793,565.063,396.771
		c3.021,0,3.021,0,6.044,0c3.021,0,3.021,0,6.043,0s6.044,0,6.044-3.022c-3.022,0-6.044,0-9.065,0l0,0c0,0,0,0-3.021,0
		C568.084,396.771,568.084,396.771,565.063,396.771z"/>
	<path fill="#317BBF" d="M314.259,484.401h3.022C317.281,484.401,317.281,484.401,314.259,484.401L314.259,484.401z"/>
	<path fill="#317BBF" d="M132.956,484.401L132.956,484.401C135.978,484.401,135.978,484.401,132.956,484.401
		C135.978,484.401,135.978,484.401,132.956,484.401L132.956,484.401z"/>
	<path fill="#317BBF" d="M220.586,360.511L220.586,360.511C217.565,360.511,217.565,360.511,220.586,360.511
		C217.565,360.511,220.586,363.532,220.586,360.511C220.586,363.532,220.586,360.511,220.586,360.511z"/>
	<path fill="#317BBF" d="M105.76,481.38h-3.021C102.739,484.401,105.76,484.401,105.76,481.38z"/>
	<path fill="#317BBF" d="M265.912,360.511C265.912,357.489,265.912,357.489,265.912,360.511
		C262.89,360.511,262.89,360.511,265.912,360.511C262.89,360.511,262.89,360.511,265.912,360.511L265.912,360.511z"/>
	<path fill="#317BBF" d="M154.108,478.357L154.108,478.357h3.022C157.13,478.357,157.13,478.357,154.108,478.357z"/>
	<path fill="#317BBF" d="M217.565,360.511C217.565,357.489,217.565,357.489,217.565,360.511
		C214.542,357.489,214.542,357.489,217.565,360.511C214.542,360.511,217.565,360.511,217.565,360.511L217.565,360.511z"/>
	<path fill="#317BBF" d="M314.259,357.489L314.259,357.489C311.238,354.467,311.238,357.489,314.259,357.489
		C311.238,357.489,314.259,357.489,314.259,357.489L314.259,357.489z"/>
	<path fill="#317BBF" d="M232.673,357.489c0,0,3.021,0,3.021,3.022C235.695,357.489,232.673,354.467,232.673,357.489z"/>
	<path fill="#317BBF" d="M347.498,354.467L347.498,354.467L347.498,354.467L347.498,354.467z"/>
	<path fill="#317BBF" d="M172.239,354.467L172.239,354.467C172.239,354.467,169.217,354.467,172.239,354.467
		C169.217,354.467,169.217,354.467,172.239,354.467L172.239,354.467z"/>
	<path fill="#317BBF" d="M519.737,384.685L519.737,384.685L519.737,384.685L519.737,384.685L519.737,384.685z"/>
	<polygon fill="#317BBF" points="184.325,372.598 184.325,372.598 184.325,372.598 	"/>
	<path fill="#317BBF" d="M586.215,436.054L586.215,436.054c3.021,0,3.021,0,6.043,0c0,0,3.021,0,6.044,0h-3.022
		C589.237,433.032,589.237,433.032,586.215,436.054c0-3.021,0-3.021-3.022-3.021l0,0h3.022c0-3.022-6.044,0-6.044-3.022h3.021h3.022
		c3.021,0,3.021,0,6.043,0s3.021,0,6.044,0c-3.022,0-3.022,0-6.044,0h-3.021c-3.021,0-6.044,0-9.065,0h-3.021l0,0
		c-3.021,0-6.044,0-9.065-3.021c-3.021,0-6.043,0-9.064,0h-3.022l0,0c6.044,0,12.087,0,21.152,0c3.021,0,3.021,0,6.044,0
		c-3.022,0-3.022,0-6.044,0s-3.021,0-6.043,0c-3.022,0-6.044,0-9.065-3.021l0,0c3.021,0,3.021,0,6.043,0c-3.021,0-3.021,0-6.043,0
		l0,0h-3.021c-3.022,0-6.044,0-6.044,0c-3.021,0-9.065-3.021-12.087,0h-3.021l0,0c-3.021,0-3.021,0-6.044,0h3.022h3.021l0,0h3.021
		c0,0-6.043,0-6.043-3.021h3.021l0,0l0,0l0,0c3.021,0,6.043,3.021,9.064,0c3.022,0,6.044,0,6.044,0s0,0,3.021,0
		c3.022,0,3.022,0,6.044,0c-3.021,0-3.021,0-6.044,0c-3.021,0-3.021,0-6.043,0l0,0l0,0l0,0l0,0c3.021,0,6.043,0,6.043,0
		c3.022,0,0,0,0,0l0,0c3.022,0,3.022,0,6.044,0l0,0h3.021h-3.021l0,0l0,0c3.021,0,3.021,0,6.043,0h3.022c3.021,0,3.021,0,6.043,0
		c-3.021,0-3.021,0-6.043,0c-3.022,0,0-3.021-6.044,0l0,0l0,0l0,0c0,0,3.021,0,6.044,0c-3.022,0-3.022,0-6.044,0l0,0l0,0h3.021
		h3.022c-3.022,0-3.022,0-3.022,0h-3.021c-3.021,0-6.043,0-6.043,0l0,0c3.021,0,3.021,0,3.021,0l0,0c-3.021,0-6.044,0-12.087,0
		c-3.021,0-3.021,0-6.044,0c3.022,0,6.044,0,6.044-3.021l0,0l0,0l0,0c0,0,6.043,0,3.021-3.022h3.021c3.022,3.022,3.022,0,6.044,0
		l0,0l0,0c3.021,0,6.043,0,6.043,0l-3.021-3.021c-3.021,0-6.043,0-6.043,0l0,0l0,0l0,0v-3.021c3.021,0,3.021,0,6.043,0h3.021h-3.021
		c-3.021,0-6.043,0-6.043,0l0,0l0,0l0,0l0,0l0,0l0,0h-3.022c3.022,0,3.022,0,6.044,0l0,0c0,0,0,0,3.021,0s6.044,0,9.065,0l0,0h3.021
		c3.021,0,6.044,0,6.044,0c-3.022,0-6.044,0-6.044,0c0-27.196-3.021-27.196-3.021-27.196h-3.022l0,0c3.022,0,6.044,0,9.065-3.021
		c-3.021,0-6.043,0-9.065,0l0,0h3.022c3.021,0,6.043,0,9.064,0c-3.021-3.022-6.043,0-9.064,0c-3.022,0-6.044,0-6.044,0s0,0-3.021,0
		c0,0,0,0-3.021,0c0,0,3.021,0,3.021-3.022c3.021,0,3.021,0,6.043,0c-3.021,0-6.043,0-9.064,0s-3.021,0-6.044,0
		c-3.021,0-6.043,0-9.065,0l0,0l0,0c0-3.021,3.022,0,6.044-3.021c0,0,0,0,3.021,0c3.022,0,6.044,0,9.065,0
		c6.044-3.022,12.087,0,21.152-3.022c-3.021,0-3.021,0-6.044,0c-6.043,0-12.087,0-21.151,0h-3.022c-3.021,0-6.043,0-9.065,0
		c0,0,0,0-3.021,0h-3.021c0,0,0,0,3.021,0c6.044,0,12.087,0,18.131,0c-3.021,0-6.044-3.021-12.087,0c-3.022-3.021-6.044,0-6.044,0
		c-3.021,0-9.064,0-12.087,0l0,0l0,0c-3.021,0-6.043,0-9.064,0c-3.022-3.021-6.044-3.021-6.044-3.021l0,0l0,0l0,0c0,0,3.021,0,0,0
		s-3.021,0-3.021,0l0,0c0,0,0,0-3.021,0c-6.044,0-12.087,0-21.152,0c3.021,0,6.043,0,9.064,0l0,0c3.022,0,3.022,0,6.044,0l0,0
		h-3.021c0,0,3.021,0,6.043-3.022c-3.021-3.021-6.043,0-9.064,0l0,0c3.021,0,3.021,0,6.043,0s6.044,0,12.087,0l0,0
		c-3.021,0-6.043,0-12.087,0c-6.043,0-9.065,0-15.108,0l0,0l0,0l0,0l0,0c-3.021,0-6.044,0-6.044,0l0,0l0,0
		c-6.043,0-15.108,0-21.151,0c-6.044,0-12.087,0-21.152,0c-3.021,0-3.021,0-3.021,3.022c-3.022,0-3.022,0-6.044,0s-6.043,0-12.087,0
		c0,0,0,0-3.021,0h3.021h3.021h-3.021c-3.021,0-6.043,0-6.043,3.021c-3.022,0-3.022,0-6.044,0l0,0l0,0c-3.021,0-3.021,0-6.043,3.022
		c-3.022,0-3.022,0-6.044,0c-3.021-3.022-3.021-3.022-6.043,0c0,0,3.021,0,3.021,3.021c0,0,0,0,3.021,0
		c-3.021,3.022-6.043,0-12.087,0h-3.021h-3.021c0,0,3.021,0,0-3.021c-3.022,0-6.044,0-6.044,3.021l0,0l0,0l0,0h-3.021
		c-9.065,0-15.108,0-21.152,0l0,0l0,0l0,0l0,0c-3.021-3.021-6.043,0-9.065,0c-3.021-3.021-6.043,0-9.064,0
		c-3.022,3.022-3.022,3.022-6.044,3.022c0,0-3.021,0-6.043,0l0,0l0,0l0,0c0-3.022-3.022-3.022-6.044-3.022s-3.021-3.021-6.043,0
		c-3.021,0-3.021,0-3.021,3.022l0,0h-3.022c0,0,0-3.022-3.021-3.022c0-3.021,0-3.021,0-6.043c-3.021,3.022-6.043,0-12.087,0h-3.021
		h-3.021c0,3.022,3.021,3.022,3.021,3.022l0,0l0,0l0,0l0,0c0,0-3.021,0-6.044,0c-3.021,0-3.021,3.021-3.021,3.021
		c-3.021,0-3.021,0-6.043,3.022l0,0c-3.022,0-3.022,0-6.044,0s-3.021,0-6.043,0l0,0l0,0l0,0l0,0l0,0c0,0,0,0-3.022,0l0,0l0,0
		c-3.021,0-3.021,0-6.043,0s-3.021,0-6.044,0c-3.021,0-6.043-3.022-9.064,0c-3.022,0-9.065,0-12.087,0l0,0
		c0-3.022,0-3.022-3.022-3.022c0,0,0,0,0-3.021h-3.021l0,0c0,0,3.021,0,0,3.021l0,0c-6.043,0-12.087,0-18.13,0
		c12.087-6.043,12.087-9.065,6.043-9.065c-3.021,0-6.043-3.022-6.043,0c-3.022,0-6.044,0-9.065,0s-3.021,0-6.044,0l0,0l0,0
		c0-3.022,0-3.022,3.022-3.022c3.021,0,3.021-3.021,0-3.021c-3.022-3.022-6.044-3.022-15.109,0c6.044,0,9.065-3.022,12.087,0
		c-3.021,0-3.021,0-6.043,0h-3.021c-3.022,0-6.044,0-6.044,0l0,0l0,0l0,0c0-3.022,0-3.022-3.021-3.022l0,0l0,0l0,0l0,0h-3.021
		c-3.022,0-6.044,0-6.044,0c-3.021,0-3.021,0-6.043,0l0,0h-3.022c0,0,0,0,3.022,3.022h-3.022c-3.021,0-3.021,0-6.043,0
		s-3.021,0-6.044,0l0,0l0,0l0,0l0,0h3.022c0,0,3.021,0,6.043,0c-3.021,0-6.043,0-6.043,0c-9.065,6.043-12.087,9.065-18.131,9.065
		l0,0l0,0c0,0,3.021,0,0,0s-3.021,0-3.021,3.022c0,0,0,0,0,3.021c3.021,3.022,6.043,0,9.065,0c0,0,0,0,0,3.022
		c-6.044,0-9.065,0-15.109,3.021l0,0l0,0c-3.021,0-6.043-3.021-6.043,0l0,0l0,0l0,0c-3.021,0-6.044,0-6.044,0
		c-3.021,0-6.043,0-9.064,0c-3.022,0-6.044,0-9.065,0s-3.021-3.021-6.044,0l0,0c-6.043,0-12.087,0-18.13,3.022l0,0
		c-3.021,0-3.021,0-6.044,0c-9.064-3.022-12.087-3.022-15.108,0c-3.021,0-3.021,0-6.043,0c-3.022,0-3.022,0-6.044,0h-3.021h3.021
		c3.021,0,3.021,0,6.044,0c3.021,0,3.021,0,6.043,0l0,0h3.021l0,0c0,0-3.021,0-3.021,3.021h-3.021h-3.021c3.021,0,3.021,0,3.021,0
		s3.021,0,3.021,3.022l0,0c0,0-3.021,0-3.021,3.021h-3.021c-3.022,0-6.044,0-9.065,0l0,0c3.021,0,6.043,0,12.087,0h3.021l0,0
		c3.021,0,3.021,0,6.044,0l0,0c-3.022,0-9.065,0-12.087,0c0,0-3.022,0-6.044,0c6.044,0,12.087,0,15.108,0c0,0,0,3.022-3.021,3.022
		h-3.021c-3.021,0-6.044,0-6.044,0c3.022,0,3.022,0,6.044,0c0,0,0,0-3.021,0c3.021,0,3.021,0,6.043,0h3.021l0,0
		c-3.021,0-6.043,0-9.064,0c3.021,0,6.043,0,9.064,0l0,0h-3.021c-3.021,0-3.021,0-6.043,0c-3.022,0-6.044,0-6.044,0
		c3.021,0,6.044,0,6.044,0h3.021c3.021,0,6.043,0,9.065,0c0,0,0,0,3.021,0l0,0c3.021,0,3.021,0,6.043,0l0,0l0,0l0,0h-3.021l0,0l0,0
		l0,0l0,0l0,0l0,0c-3.021,0-6.043,0-6.043,0h-3.022h3.022c3.021,0,3.021,0,6.043,0l0,0l0,0l0,0l0,0c-3.021,0-3.021,0-6.043,0
		c0,0-3.022,0-3.022,3.021c3.022,0,6.044,0,6.044,0l0,0l0,0c3.021,0,3.021,0,6.043,0h3.022c0,0,0,0,3.021,0h-3.021h3.021
		c-3.021,0-6.044,0-9.065,0l0,0c-3.021,0-3.021,0-6.043,0c0,0,0,0-3.022,0h-3.021h3.021c-3.021,0-6.043,0-9.064,0
		c3.021,0,3.021,0,6.043,0l0,0l0,0l0,0l0,0c3.021,0,3.021,0,6.044,0c3.021,0,3.021,0,6.043,0s6.044,0,9.065,0h3.021l0,0
		c3.021,0,3.021,0,6.044,0h3.021h3.021h3.021l0,0h3.022l0,0h3.021c0,0,3.021,0,3.021,3.021l0,0c-3.021,0-3.021,0-6.043,0
		c-3.022,0-6.044,0-6.044,0l0,0c3.021,0,6.044,0,6.044,0c3.021,0,3.021,0,6.043,0l0,0h-3.021l0,0h-3.021l0,0c0,0,0,0-3.022,0
		c-6.043,0-9.064,0-12.087,0c-3.021,0-6.043,0-6.043,0h-3.021l0,0c-3.022,0-3.022,0-6.044,0c3.021,0,3.021,0,6.044,0l0,0
		c-3.022,0-6.044,0-9.065,0s-3.021,0-6.044,0l0,0l0,0c-3.021,0-3.021,0-6.043,0c3.021,0,3.021,0,6.043,0c6.044,0,12.087,0,21.152,0
		c0,0,0,0-3.021,0l0,0l0,0l0,0c-3.021,0-6.044,0-9.065,0s-6.043,0-9.065,0l0,0h-3.021l0,0c-3.021,0-6.043,0-9.065,0H18.13
		c-3.021,0-3.021,0-6.043,0c3.021,0,3.021,0,6.043,0c0,0,3.021,0,6.044,0h3.021h3.021h-6.043c3.021,0,6.043,0,9.064,0
		c-3.021,0-6.043,0-9.064,0c6.043,0,12.087,0,18.13,0l0,0l0,0c-3.021,0-6.043,0-6.043,0c-3.022,0-6.044,0-9.065,0
		c3.021,0,6.043,0,9.065,0c3.021,0,6.043,0,6.043,0l0,0c0,0-3.021,0-6.043,0c-3.022,0-3.022,0-6.044,0c3.021,0,3.021,0,6.044,0
		h3.021c3.021,0,3.021,0,6.043,0c3.022,0,6.044,0,9.065,0l0,0c-3.021,0-6.043,0-6.043,3.021l0,0l0,0c-3.022,0-9.065,0-12.087,3.022
		c-3.022,0-3.022,0-3.022,3.021c-15.108,30.218-18.13,33.239-18.13,33.239c-3.021,0-3.021,0-6.044,0H6.043
		C3.022,448.141,0,448.141,0,451.162c3.021,0,3.021,0,6.043,0c0,3.021,3.021,3.021,6.044,0l0,0c0,0,0,3.021,3.021,3.021
		c0,0,3.021,0,3.021,3.022c0,3.021-6.043,0-6.043,3.021c-3.022,0-3.022,0-6.044,0c3.021,0,6.044,0,6.044,0s0,0,0,3.021l0,0
		c-3.022,0-3.022,0-6.044,0c3.021,0,6.044,0,6.044,0c3.021,0,3.021,0,6.043,0l0,0c0,0,0,0,0,3.021c-3.021,0-6.043,0-6.043,0
		s-3.022,0-6.044,0c3.021,0,6.044,0,6.044,0c3.021,0,6.043,0,9.064,0l0,0c0,0,0,0,0,3.022c-3.021,0-6.043,0-6.043,3.021
		c3.021,0,3.021,0,6.043,0H18.13c0,0-3.021,0-3.021,3.021h3.021c3.021,0,3.021,0,6.044,0c-6.044-6.043-6.044-3.021-3.022-3.021l0,0
		c3.022,3.021,6.044,3.021,9.065,3.021l0,0l0,0l0,0c3.021,0,6.044,0,9.065,0h3.021h3.021c3.022,0,3.022,0,6.044,0h3.021
		c3.021,0,6.044,0,9.065,0s9.065,3.021,12.087,0h3.021h3.021c3.022,3.021,6.044,0,9.065,0s6.044,0,9.065,0s6.043,0,6.043-3.021l0,0
		c3.022,0,3.022-3.021,6.044-3.021s6.043,0,12.087,0c0,12.087-3.021,9.064-6.044,12.087c3.022,0,9.065,3.021,9.065-3.022l0,0l0,0
		h3.021c0,0,3.022,0,3.022-3.021c0,0,0,0,0-3.021c3.021,0,0-3.021,0-3.021c-3.022,3.021-3.022,3.021-3.022,3.021s0,0,3.022,0
		c0,0,3.021,3.021,3.021,0c3.021-3.021,3.021,0,6.043,0c0,3.021,3.022,0,6.044,3.021h3.021c0-3.021,0-3.021-3.021-3.021l0,0l0,0l0,0
		h3.021c3.021-3.021,6.044,0,9.065,0c0,0-3.021,0,0,3.021c0,0,3.021,3.021,3.021,0l0,0l0,0c0,0,0,3.021,3.021,3.021
		c3.022,0,3.022,0,6.044,0h3.021l0,0l0,0l0,0c3.021,0,6.044,0,12.087,0c3.021,3.022,6.044,0,9.065,0l0,0l0,0l0,0l0,0l0,0
		c3.021,0,6.043,0,9.065,0c3.021,0,6.043,0,9.064,0c9.065,0,21.152,0,30.218,0c3.021,0,6.043,0,9.065,0c3.021,0,9.064,0,12.087,0
		c3.021,0,6.043,0,6.043,0l0,0l0,0l0,0c6.044,0,12.087,0,18.131,0c3.021,0,3.021,0,6.043,0l0,0l0,0l0,0c3.021,0,6.044,0,6.044,0l0,0
		l0,0l0,0l0,0l0,0c3.021,0,6.043,0,9.064,0l0,0l0,0l0,0c3.021,0,3.021,0,6.044,0c3.021,0,6.043,0,9.064,0h3.022c0,0,0,0,3.021,0
		s6.043,0,6.043,0l0,0c3.022,0,9.065,3.022,12.087,0h3.022c3.021,0,6.043,0,6.043,0h3.021l0,0c3.022,0,3.022,0,6.044,0
		s3.021,0,3.021-3.021c0,0,0,0,3.021,0h3.022c0,3.021,3.021,3.021,3.021,3.021c3.021,0,6.043,0,9.065,0l0,0c3.021,0,3.021,0,6.043,0
		l0,0l0,0l0,0c3.021,0,6.044,0,9.065,0l0,0l0,0h3.021c3.021,3.022,6.044,0,6.044,0l0,0c3.021,0,3.021,0,6.043,0l0,0l0,0l0,0
		c3.021,0,6.044,0,6.044,0c3.021,0,6.043,0,6.043,0l0,0c-3.021,0-3.021,0-6.043,0l0,0c3.021,0,3.021,0,6.043,0l0,0l0,0l0,0
		c3.021,0,6.044,0,6.044,0h3.021h3.021h3.021c3.022-6.043,6.044-6.043,6.044-6.043l0,0l0,0h3.021h3.021l0,0h-3.021
		c0-3.021,6.044,0,6.044-3.021l0,0c3.021,0,3.021,0,6.043-3.021c3.021,0,3.021,0,6.044,0l0,0c3.021,3.021,6.043-3.022,9.064,0
		c3.022,0,6.044,0,9.065,0c9.065,0,15.108,0,24.174,0c3.021,0,9.065,0,12.087,0s6.044,0,6.044-3.022l0,0l0,0
		c3.021,0,3.021,0,6.043,0l0,0c3.021,0,3.021,0,6.043,0c0-3.021-6.043,0-3.021-3.021l0,0l0,0h3.021c0,0-3.021,0-3.021-3.021l0,0
		c3.021,0,3.021,0,6.044,0c-3.022-3.022-6.044-3.022-6.044,0c-3.021,0-3.021,0-6.043-3.022l0,0l0,0l0,0c3.021,0,6.043,0,6.043,0l0,0
		l0,0l0,0l0,0h3.021c3.022,0,6.044,0,9.065-3.021c-3.021,0-9.065,0-12.087,0c0,0,0,0-3.021,0h3.021l0,0l0,0h3.021h3.022
		c3.021,0,6.043,0,9.065,0l0,0l0,0l0,0c3.021,0,6.043,0,9.064,0s3.021,0,3.021,0c3.022,0,3.022,0,6.044,0h3.021c0,0,0,0-3.021,0
		h-3.021c3.021,0,3.021,0,6.043,0c-3.021,0-3.021,0-6.043,0l0,0l0,0c3.021,0,6.043,0,9.064,0c0,0,3.022,0,6.044,0
		c-3.021,0-3.021,0-6.044,0c-3.021,0-6.043,0-6.043,0l0,0c3.021,0,3.021,0,6.043,0c0,0,3.022,0,6.044,0c-3.021,0-3.021,0-6.044,0
		l0,0l0,0c0,0,3.022,0,6.044,0c-3.021,0-3.021,0-6.044,0h-6.043C580.171,439.075,583.193,436.054,586.215,436.054L586.215,436.054z
		 M513.694,463.249L513.694,463.249L513.694,463.249L513.694,463.249z M413.977,475.336L413.977,475.336L413.977,475.336
		L413.977,475.336z M398.867,475.336L398.867,475.336L398.867,475.336L398.867,475.336z M302.173,475.336
		C299.151,475.336,299.151,475.336,302.173,475.336C299.151,475.336,299.151,475.336,302.173,475.336L302.173,475.336
		L302.173,475.336C302.173,475.336,299.151,475.336,302.173,475.336L302.173,475.336L302.173,475.336L302.173,475.336
		L302.173,475.336z M271.955,478.357L271.955,478.357L271.955,478.357L271.955,478.357L271.955,478.357z M63.456,378.641
		L63.456,378.641L63.456,378.641L63.456,378.641z M117.847,375.619L117.847,375.619L117.847,375.619L117.847,375.619
		L117.847,375.619z M453.259,466.271L453.259,466.271L453.259,466.271L453.259,466.271L453.259,466.271L453.259,466.271
		L453.259,466.271z M117.847,472.314L117.847,472.314L117.847,472.314L117.847,472.314z M184.325,372.598L184.325,372.598
		L184.325,372.598L184.325,372.598L184.325,372.598L184.325,372.598L184.325,372.598L184.325,372.598z M486.498,360.511
		L486.498,360.511L486.498,360.511L486.498,360.511L486.498,360.511L486.498,360.511L486.498,360.511z M483.476,363.532
		L483.476,363.532L483.476,363.532L483.476,363.532z M552.976,387.706L552.976,387.706L552.976,387.706L552.976,387.706z
		 M549.954,408.858L549.954,408.858L549.954,408.858L549.954,408.858z M435.128,469.293L435.128,469.293L435.128,469.293
		L435.128,469.293z M401.89,472.314L401.89,472.314L401.89,472.314L401.89,472.314L401.89,472.314L401.89,472.314L401.89,472.314z
		 M332.39,475.336L332.39,475.336L332.39,475.336L332.39,475.336z M72.522,381.663L72.522,381.663L72.522,381.663L72.522,381.663
		L72.522,381.663z M241.739,372.598L241.739,372.598L241.739,372.598L241.739,372.598L241.739,372.598z M45.325,442.098
		L45.325,442.098L45.325,442.098L45.325,442.098z M347.498,372.598L347.498,372.598L347.498,372.598L347.498,372.598
		L347.498,372.598L347.498,372.598L347.498,372.598z M365.629,369.576L365.629,369.576
		C365.629,369.576,362.607,369.576,365.629,369.576C362.607,369.576,365.629,369.576,365.629,369.576z M453.259,457.206
		L453.259,457.206C453.259,460.228,453.259,460.228,453.259,457.206L453.259,457.206L453.259,457.206z M187.347,472.314
		L187.347,472.314L187.347,472.314L187.347,472.314z M111.804,460.228L111.804,460.228L111.804,460.228L111.804,460.228z
		 M392.824,369.576L392.824,369.576L392.824,369.576L392.824,369.576z M380.738,466.271L380.738,466.271L380.738,466.271
		L380.738,466.271z M386.781,466.271C386.781,466.271,383.759,466.271,386.781,466.271
		C383.759,466.271,383.759,466.271,386.781,466.271C383.759,466.271,386.781,466.271,386.781,466.271c3.022,0,6.044,0,9.065,0l0,0
		C389.803,466.271,386.781,466.271,386.781,466.271z M111.804,454.184L111.804,454.184L111.804,454.184L111.804,454.184z
		 M226.629,390.728L226.629,390.728L226.629,390.728L226.629,390.728z M229.652,454.184L229.652,454.184L229.652,454.184
		L229.652,454.184z M96.696,451.162L96.696,451.162L96.696,451.162L96.696,451.162z M105.76,451.162L105.76,451.162L105.76,451.162
		L105.76,451.162L105.76,451.162z M462.324,387.706L462.324,387.706L462.324,387.706L462.324,387.706z M447.215,384.685
		L447.215,384.685L447.215,384.685L447.215,384.685z M516.715,423.967L516.715,423.967L516.715,423.967L516.715,423.967
		L516.715,423.967z M335.411,384.685L335.411,384.685L335.411,384.685L335.411,384.685z M75.543,445.119L75.543,445.119
		L75.543,445.119L75.543,445.119L75.543,445.119z M84.609,448.141L84.609,448.141L84.609,448.141L84.609,448.141z M323.324,451.162
		L323.324,451.162L323.324,451.162L323.324,451.162z M247.781,387.706L247.781,387.706L247.781,387.706L247.781,387.706z
		 M471.389,375.619L471.389,375.619L471.389,375.619L471.389,375.619z M413.977,372.598L413.977,372.598L413.977,372.598
		L413.977,372.598z M317.281,378.641L317.281,378.641L317.281,378.641L317.281,378.641z M284.042,387.706L284.042,387.706
		L284.042,387.706z M145.043,387.706L145.043,387.706L145.043,387.706L145.043,387.706z M226.629,472.314L226.629,472.314
		L226.629,472.314L226.629,472.314z M226.629,454.184L226.629,454.184C226.629,454.184,226.629,451.162,226.629,454.184
		L226.629,454.184z M265.912,457.206L265.912,457.206L265.912,457.206L265.912,457.206z M341.455,466.271L341.455,466.271
		L341.455,466.271L341.455,466.271z M350.52,460.228L350.52,460.228L350.52,460.228L350.52,460.228z M519.737,384.685
		L519.737,384.685L519.737,384.685L519.737,384.685L519.737,384.685L519.737,384.685L519.737,384.685L519.737,384.685z
		 M486.498,375.619L486.498,375.619L486.498,375.619L486.498,375.619z M468.367,369.576L468.367,369.576L468.367,369.576
		L468.367,369.576z M290.086,387.706L290.086,387.706L290.086,387.706z M268.934,378.641L268.934,378.641L268.934,378.641z
		 M253.825,381.663L253.825,381.663L253.825,381.663L253.825,381.663L253.825,381.663z M229.652,387.706L229.652,387.706
		L229.652,387.706L229.652,387.706z M66.478,442.098L66.478,442.098L66.478,442.098L66.478,442.098z M214.542,472.314
		C214.542,472.314,217.565,472.314,214.542,472.314C217.565,472.314,217.565,472.314,214.542,472.314
		C217.565,472.314,217.565,472.314,214.542,472.314C217.565,472.314,217.565,472.314,214.542,472.314
		C217.565,472.314,214.542,472.314,214.542,472.314L214.542,472.314z M371.672,469.293
		C371.672,469.293,371.672,466.271,371.672,469.293C371.672,466.271,371.672,466.271,371.672,469.293
		C371.672,466.271,371.672,469.293,371.672,469.293L371.672,469.293z M389.803,466.271L389.803,466.271L389.803,466.271
		L389.803,466.271C389.803,466.271,392.824,466.271,389.803,466.271C392.824,466.271,389.803,466.271,389.803,466.271z
		 M413.977,466.271L413.977,466.271L413.977,466.271L413.977,466.271L413.977,466.271z M423.041,466.271L423.041,466.271
		L423.041,466.271L423.041,466.271L423.041,466.271L423.041,466.271z M423.041,463.249
		C420.02,460.228,420.02,460.228,423.041,463.249C423.041,460.228,423.041,460.228,423.041,463.249L423.041,463.249z
		 M489.52,366.554L489.52,366.554L489.52,366.554L489.52,366.554z M477.433,369.576L477.433,369.576L477.433,369.576
		L477.433,369.576z M420.02,369.576L420.02,369.576L420.02,369.576L420.02,369.576z M395.846,369.576L395.846,369.576
		L395.846,369.576L395.846,369.576L395.846,369.576z M268.934,375.619C268.934,375.619,268.934,378.641,268.934,375.619
		C268.934,378.641,268.934,378.641,268.934,375.619C268.934,378.641,268.934,375.619,268.934,375.619L268.934,375.619z
		 M214.542,472.314L214.542,472.314L214.542,472.314L214.542,472.314z M229.652,466.271L229.652,466.271L229.652,466.271
		L229.652,466.271L229.652,466.271z M250.803,457.206L250.803,457.206L250.803,457.206L250.803,457.206z M305.195,457.206
		L305.195,457.206L305.195,457.206L305.195,457.206L305.195,457.206z M395.846,469.293L395.846,469.293L395.846,469.293
		L395.846,469.293z M389.803,463.249L389.803,463.249L389.803,463.249L389.803,463.249z M429.085,454.184L429.085,454.184
		L429.085,454.184C429.085,451.162,429.085,454.184,429.085,454.184z M492.541,369.576L492.541,369.576L492.541,369.576
		L492.541,369.576z M474.411,369.576L474.411,369.576L474.411,369.576L474.411,369.576L474.411,369.576L474.411,369.576
		L474.411,369.576C474.411,369.576,474.411,366.554,474.411,369.576C474.411,366.554,474.411,366.554,474.411,369.576
		C474.411,366.554,474.411,369.576,474.411,369.576L474.411,369.576z M426.064,369.576L426.064,369.576L426.064,369.576
		L426.064,369.576z M383.759,369.576L383.759,369.576L383.759,369.576L383.759,369.576z M320.303,372.598L320.303,372.598
		C320.303,372.598,317.281,372.598,320.303,372.598C317.281,372.598,317.281,372.598,320.303,372.598
		C317.281,372.598,320.303,372.598,320.303,372.598L320.303,372.598L320.303,372.598z M151.086,381.663L151.086,381.663
		L151.086,381.663L151.086,381.663z M51.369,442.098C51.369,442.098,54.391,442.098,51.369,442.098L51.369,442.098L51.369,442.098z
		 M42.304,451.162L42.304,451.162L42.304,451.162L42.304,451.162z M175.26,460.228L175.26,460.228L175.26,460.228L175.26,460.228z
		 M265.912,472.314L265.912,472.314L265.912,472.314L265.912,472.314z M395.846,472.314L395.846,472.314L395.846,472.314
		L395.846,472.314z M395.846,472.314L395.846,472.314L395.846,472.314L395.846,472.314z M401.89,466.271L401.89,466.271
		L401.89,466.271L401.89,466.271z M416.998,466.271C420.02,466.271,420.02,466.271,416.998,466.271
		C420.02,466.271,420.02,466.271,416.998,466.271L416.998,466.271C420.02,466.271,420.02,466.271,416.998,466.271
		C420.02,466.271,420.02,466.271,416.998,466.271C420.02,466.271,420.02,466.271,416.998,466.271z M477.433,366.554L477.433,366.554
		L477.433,366.554L477.433,366.554z M383.759,369.576L383.759,369.576L383.759,369.576L383.759,369.576z M371.672,366.554
		L371.672,366.554L371.672,366.554L371.672,366.554z M323.324,369.576L323.324,369.576L323.324,369.576L323.324,369.576
		L323.324,369.576z M63.456,384.685L63.456,384.685L63.456,384.685L63.456,384.685z M45.325,457.206L45.325,457.206L45.325,457.206
		L45.325,457.206z M420.02,466.271L420.02,466.271L420.02,466.271L420.02,466.271z M423.041,469.293L423.041,469.293
		L423.041,469.293L423.041,469.293L423.041,469.293z M477.433,363.532L477.433,363.532L477.433,363.532L477.433,363.532z
		 M420.02,360.511L420.02,360.511L420.02,360.511L420.02,360.511z M296.129,372.598L296.129,372.598L296.129,372.598
		L296.129,372.598L296.129,372.598z M277.999,372.598L277.999,372.598L277.999,372.598L277.999,372.598z M274.977,372.598
		L274.977,372.598C274.977,372.598,274.977,375.619,274.977,372.598C274.977,375.619,274.977,375.619,274.977,372.598
		C274.977,375.619,274.977,372.598,274.977,372.598L274.977,372.598z M241.739,375.619L241.739,375.619L241.739,375.619
		L241.739,375.619z M193.391,381.663L193.391,381.663L193.391,381.663L193.391,381.663z M84.609,384.685L84.609,384.685
		L84.609,384.685L84.609,384.685C84.609,384.685,84.609,381.663,84.609,384.685C84.609,381.663,84.609,381.663,84.609,384.685
		C84.609,381.663,84.609,384.685,84.609,384.685z M63.456,420.945L63.456,420.945L63.456,420.945L63.456,420.945z M57.412,423.967
		L57.412,423.967L57.412,423.967L57.412,423.967z M36.261,457.206L36.261,457.206L36.261,457.206L36.261,457.206z M57.412,472.314
		L57.412,472.314L57.412,472.314L57.412,472.314L57.412,472.314z M96.696,469.293L96.696,469.293L96.696,469.293L96.696,469.293z
		 M99.717,475.336L99.717,475.336L99.717,475.336L99.717,475.336L99.717,475.336L99.717,475.336z M199.434,472.314L199.434,472.314
		L199.434,472.314L199.434,472.314z M296.129,475.336L296.129,475.336L296.129,475.336L296.129,475.336z M338.433,475.336
		L338.433,475.336L338.433,475.336L338.433,475.336L338.433,475.336z M362.607,472.314L362.607,472.314L362.607,472.314
		L362.607,472.314z M423.041,469.293L423.041,469.293L423.041,469.293L423.041,469.293L423.041,469.293z M543.91,375.619
		L543.91,375.619L543.91,375.619L543.91,375.619L543.91,375.619z M510.672,366.554L510.672,366.554L510.672,366.554L510.672,366.554
		z M474.411,363.532L474.411,363.532C474.411,360.511,474.411,360.511,474.411,363.532
		C474.411,360.511,474.411,360.511,474.411,363.532z M380.738,363.532C377.716,363.532,377.716,363.532,380.738,363.532
		L380.738,363.532C377.716,366.554,380.738,363.532,380.738,363.532L380.738,363.532L380.738,363.532L380.738,363.532z
		 M250.803,375.619L250.803,375.619L250.803,375.619L250.803,375.619L250.803,375.619z M220.586,372.598L220.586,372.598
		L220.586,372.598L220.586,372.598L220.586,372.598L220.586,372.598L220.586,372.598L220.586,372.598z M205.478,375.619
		L205.478,375.619L205.478,375.619L205.478,375.619L205.478,375.619L205.478,375.619L205.478,375.619z M193.391,378.641
		L193.391,378.641L193.391,378.641L193.391,378.641L193.391,378.641L193.391,378.641z M154.108,366.554L154.108,366.554
		L154.108,366.554L154.108,366.554L154.108,366.554z M163.173,372.598L163.173,372.598L163.173,372.598L163.173,372.598z
		 M138.999,375.619L138.999,375.619L138.999,375.619L138.999,375.619z M72.522,384.685
		C72.522,381.663,72.522,381.663,72.522,384.685C72.522,381.663,72.522,381.663,72.522,384.685L72.522,384.685z M81.586,417.924
		L81.586,417.924L81.586,417.924L81.586,417.924z M57.412,423.967L57.412,423.967L57.412,423.967L57.412,423.967z M33.239,426.988
		L33.239,426.988L33.239,426.988L33.239,426.988z M39.282,426.988L39.282,426.988L39.282,426.988L39.282,426.988z M36.261,426.988
		L36.261,426.988L36.261,426.988L36.261,426.988L36.261,426.988L36.261,426.988L36.261,426.988z M30.217,426.988L30.217,426.988
		L30.217,426.988L30.217,426.988z M178.281,466.271L178.281,466.271L178.281,466.271L178.281,466.271z M211.521,475.336
		L211.521,475.336L211.521,475.336L211.521,475.336L211.521,475.336z M259.868,475.336
		C259.868,475.336,262.89,475.336,259.868,475.336C262.89,475.336,262.89,475.336,259.868,475.336
		C262.89,475.336,262.89,475.336,259.868,475.336C259.868,475.336,262.89,475.336,259.868,475.336z M271.955,475.336
		L271.955,475.336L271.955,475.336L271.955,475.336z M274.977,475.336L274.977,475.336L274.977,475.336L274.977,475.336z
		 M335.411,475.336L335.411,475.336L335.411,475.336L335.411,475.336L335.411,475.336z M401.89,475.336L401.89,475.336
		L401.89,475.336L401.89,475.336L401.89,475.336z M546.932,426.988h3.022l0,0C549.954,426.988,549.954,426.988,546.932,426.988
		L546.932,426.988z M522.758,417.924L522.758,417.924L522.758,417.924L522.758,417.924L522.758,417.924z M540.889,411.88
		L540.889,411.88L540.889,411.88L540.889,411.88z M552.976,402.814c-3.021,0-3.021,0-6.044,0l0,0
		C549.954,402.814,549.954,402.814,552.976,402.814L552.976,402.814L552.976,402.814L552.976,402.814L552.976,402.814z
		 M549.954,402.814L549.954,402.814L549.954,402.814L549.954,402.814L549.954,402.814z M534.846,366.554
		C531.823,366.554,531.823,366.554,534.846,366.554C531.823,366.554,531.823,366.554,534.846,366.554
		C531.823,366.554,531.823,366.554,534.846,366.554z M477.433,357.489L477.433,357.489L477.433,357.489L477.433,357.489z
		 M407.933,360.511L407.933,360.511C407.933,360.511,404.911,360.511,407.933,360.511
		C404.911,360.511,407.933,360.511,407.933,360.511z M302.173,366.554L302.173,366.554L302.173,366.554L302.173,366.554z
		 M208.499,375.619L208.499,375.619C208.499,375.619,208.499,372.598,208.499,375.619
		C208.499,372.598,208.499,372.598,208.499,375.619C208.499,372.598,208.499,372.598,208.499,375.619z M187.347,369.576
		L187.347,369.576L187.347,369.576L187.347,369.576L187.347,369.576z M145.043,366.554L145.043,366.554L145.043,366.554
		L145.043,366.554z M160.152,372.598L160.152,372.598L160.152,372.598L160.152,372.598z M138.999,375.619L138.999,375.619
		L138.999,375.619L138.999,375.619z M45.325,381.663L45.325,381.663L45.325,381.663L45.325,381.663L45.325,381.663z M39.282,408.858
		L39.282,408.858L39.282,408.858L39.282,408.858L39.282,408.858z M48.348,423.967L48.348,423.967h-3.022l0,0
		C45.325,423.967,45.325,423.967,48.348,423.967z M33.239,430.01L33.239,430.01L33.239,430.01L33.239,430.01z M51.369,426.988
		L51.369,426.988L51.369,426.988L51.369,426.988z M117.847,475.336C114.825,475.336,114.825,475.336,117.847,475.336
		C114.825,475.336,114.825,475.336,117.847,475.336C114.825,475.336,114.825,475.336,117.847,475.336z M120.869,472.314
		L120.869,472.314L120.869,472.314L120.869,472.314z M205.478,475.336L205.478,475.336L205.478,475.336L205.478,475.336z
		 M271.955,475.336L271.955,475.336L271.955,475.336L271.955,475.336z M453.259,466.271L453.259,466.271L453.259,466.271
		L453.259,466.271z M583.193,436.054L583.193,436.054L583.193,436.054L583.193,436.054z M540.889,411.88L540.889,411.88
		L540.889,411.88L540.889,411.88z M555.997,411.88L555.997,411.88L555.997,411.88L555.997,411.88L555.997,411.88z M492.541,357.489
		L492.541,357.489L492.541,357.489L492.541,357.489z M486.498,357.489L486.498,357.489L486.498,357.489L486.498,357.489z
		 M477.433,357.489L477.433,357.489L477.433,357.489L477.433,357.489z M441.172,354.467L441.172,354.467L441.172,354.467
		L441.172,354.467z M407.933,357.489L407.933,357.489L407.933,357.489L407.933,357.489z M90.652,375.619L90.652,375.619
		L90.652,375.619L90.652,375.619z M27.196,396.771L27.196,396.771L27.196,396.771L27.196,396.771z M24.174,399.793L24.174,399.793
		c3.021,0,3.021,0,6.043,0l0,0c0,0,0,0-3.021,0C27.196,399.793,27.196,399.793,24.174,399.793z M21.152,426.988L21.152,426.988
		L21.152,426.988L21.152,426.988L21.152,426.988z M12.087,451.162L12.087,451.162L12.087,451.162z M15.109,469.293L15.109,469.293
		L15.109,469.293L15.109,469.293z M235.695,478.357L235.695,478.357L235.695,478.357L235.695,478.357z M265.912,478.357
		L265.912,478.357L265.912,478.357L265.912,478.357L265.912,478.357z M326.346,478.357L326.346,478.357L326.346,478.357
		L326.346,478.357z M365.629,478.357L365.629,478.357L365.629,478.357L365.629,478.357z M371.672,475.336L371.672,475.336
		L371.672,475.336L371.672,475.336z M416.998,475.336L416.998,475.336C416.998,475.336,420.02,475.336,416.998,475.336
		C420.02,475.336,420.02,475.336,416.998,475.336C420.02,475.336,420.02,475.336,416.998,475.336z M489.52,463.249L489.52,463.249
		L489.52,463.249L489.52,463.249L489.52,463.249L489.52,463.249z M543.91,454.184L543.91,454.184L543.91,454.184L543.91,454.184z
		 M580.171,445.119L580.171,445.119L580.171,445.119L580.171,445.119z"/>
	<path fill="#317BBF" d="M27.196,420.945c-3.021,0-3.021,0-6.044,0C24.174,420.945,27.196,420.945,27.196,420.945z"/>
	<path fill="#317BBF" d="M577.15,448.141c3.021,0,3.021,0,6.044,0C580.171,448.141,580.171,445.119,577.15,448.141z"/>
	<path fill="#317BBF" d="M559.02,451.162c3.021,0,6.043,0,9.064,0l0,0C565.063,448.141,562.041,448.141,559.02,451.162
		L559.02,451.162z"/>
	<path fill="#317BBF" d="M18.13,405.836L18.13,405.836h-3.021c-3.021,0-6.044,0-9.065,0l0,0c3.021,0,6.044,0,9.065,0
		C15.109,405.836,15.109,405.836,18.13,405.836z"/>
	<path fill="#317BBF" d="M568.084,402.814c0,0,3.021,0,6.044,0h3.021c0,0,0,0-3.021,0
		C574.128,402.814,571.106,402.814,568.084,402.814c0,0-3.021,0-6.043,0l0,0C565.063,402.814,568.084,402.814,568.084,402.814z"/>
</g>
</svg>
