<svg xmlns="http://www.w3.org/2000/svg" xmlns:xlink="http://www.w3.org/1999/xlink" viewBox="0,0,256,256" width="128px" height="128px" fill-rule="nonzero"><g fill="#ecc366" fill-rule="nonzero" stroke="none" stroke-width="1" stroke-linecap="butt" stroke-linejoin="miter" stroke-miterlimit="10" stroke-dasharray="" stroke-dashoffset="0" font-family="none" font-weight="none" font-size="none" text-anchor="none" style="mix-blend-mode: normal"><g transform="scale(0.5,0.5)"><path d="M219.39062,16l-6.78515,37.41016l-41.90039,13.46875l-27.71094,-26.30078l-59.28125,42.61914l16.76563,34.24218l-25.83985,35.16797l-37.65625,-5.14258l-22.68945,69.05664l33.5918,17.77735v43.40234l-33.5918,17.7793l22.68945,69.05469l37.65625,-5.14063l25.83985,35.16602l-16.76758,34.24218l59.2832,42.61915l27.71094,-26.30079l41.90039,13.46875l6.78515,37.41016h73.21876l6.78515,-37.41016l41.90039,-13.46875l27.71094,26.30079l59.2832,-42.61915l-16.76758,-34.24218l25.83985,-35.16797l37.65625,5.14258l22.68945,-69.05664l-33.5918,-17.77735v-43.40234l33.5918,-17.7793l-22.68945,-69.05469l-37.65625,5.14063l-25.83985,-35.16602l16.76758,-34.24218l-59.2832,-42.61914l-27.71094,26.30078l-41.90039,-13.46875l-6.78515,-37.41016zM232.75,32h46.5l6.11328,33.70508l60.06641,19.31055l24.98828,-23.71875l37.55664,27l-15.08399,30.80859l37.20899,50.64062l33.87695,-4.625l14.31641,43.57032l-30.17774,15.97265v62.67188l30.17774,15.97265l-14.31641,43.57032l-33.87695,-4.62305l-37.20899,50.63867l15.08399,30.80664l-37.55859,27l-24.98633,-23.71484l-60.06641,19.30859l-6.11328,33.70508h-46.5l-6.11328,-33.70508l-60.06641,-19.30859l-24.98633,23.71679l-37.55859,-27l15.08399,-30.80859l-37.20899,-50.64062l-33.87695,4.625l-14.31641,-43.57032l30.17774,-15.97265v-62.67188l-30.17773,-15.97265l14.31445,-43.57032l33.87891,4.62305l37.20899,-50.63867l-15.08399,-30.80664l37.55859,-27l24.98633,23.71484l60.06641,-19.30859zM256,88c-92.63574,0 -168,75.36426 -168,168c0,92.63574 75.36426,168 168,168c92.63574,0 168,-75.36426 168,-168c0,-92.63574 -75.36426,-168 -168,-168zM256,104c83.813,0 152,68.18652 152,152c0,83.81348 -68.187,152 -152,152c-83.813,0 -152,-68.18652 -152,-152c0,-83.81348 68.187,-152 152,-152zM256.6543,130.53711c-4.46882,-0.12127 -8.88289,1.00626 -12.7461,3.25586l-80.00195,46.66601c-7.36045,4.31351 -11.88949,12.19922 -11.90625,20.73047v109.6211c0.01692,8.53171 4.54683,16.41763 11.9082,20.73047l79.99805,46.66601c7.47469,4.35137 16.71086,4.35137 24.18555,0l80.00195,-46.66601c7.36045,-4.31351 11.88949,-12.19922 11.90625,-20.73047v-109.6211c-0.01692,-8.53171 -4.54683,-16.41763 -11.9082,-20.73047l-79.99805,-46.66601c-3.48014,-2.02656 -7.41374,-3.14613 -11.43945,-3.25586zM255.7832,146.5293c1.48926,-0.04065 2.96035,0.33473 4.24805,1.08398l76.0918,44.38672l-76.0918,44.38672c-2.49155,1.45135 -5.57095,1.45135 -8.0625,0l-13.4082,-7.82031l38.17187,-22.90235l-45.32812,-26.66211l-38.35742,23.01367l-17.16993,-10.01562l76.0918,-44.38672c1.16057,-0.67524 2.47222,-1.04799 3.81445,-1.08398zM231.48438,197.61133l13.92187,8.1875l-22.61328,13.56836l-13.97852,-8.15235zM168,205.92773l15.44531,9.00977v41.94727l47.9961,28.21289l0.01367,-42.1543l12.45117,7.26367c1.30214,0.75638 2.67281,1.38809 4.09375,1.88672v109.97852l-76.0293,-44.35157c-2.45424,-1.43733 -3.96472,-4.066 -3.9707,-6.91015zM344,205.92773v104.88282c-0.00581,2.84369 -1.51543,5.47215 -3.96875,6.91015l-76.03125,44.35157v-109.97852c1.42031,-0.49863 2.79033,-1.13035 4.0918,-1.88672zM199.44531,224.27148l16.01172,9.33985l-0.00781,23.52734l-16.00391,-9.41015z"></path></g></g></svg>