<svg xmlns="http://www.w3.org/2000/svg" xmlns:xlink="http://www.w3.org/1999/xlink" viewBox="0,0,256,256" width="128px" height="128px" fill-rule="nonzero"><g fill="#ecc366" fill-rule="nonzero" stroke="none" stroke-width="1" stroke-linecap="butt" stroke-linejoin="miter" stroke-miterlimit="10" stroke-dasharray="" stroke-dashoffset="0" font-family="none" font-weight="none" font-size="none" text-anchor="none" style="mix-blend-mode: normal"><g transform="scale(0.5,0.5)"><path d="M40,16c-13.24855,0.01515 -23.98485,10.75145 -24,24v336c0.01515,13.24855 10.75145,23.98485 24,24h157.75391l-20,80h-41.75391v16h240v-16h-41.75391l-20,-80h157.75391c13.24855,-0.01515 23.98485,-10.75145 24,-24v-336c-0.01515,-13.24855 -10.75145,-23.98485 -24,-24zM40,32h432c4.41618,0.00505 7.99495,3.58382 8,8v8h-448v-8c0.00505,-4.41618 3.58382,-7.99495 8,-8zM32,64h56v144h-56zM104,64h304v256h-304zM424,64h56v80h-56zM120,80v16h8v192h-8v16h32v-16h-8v-192h8v-16zM344,80v16h16v-16zM376,80v16h16v-16zM440,80v16h24v-16zM256.03125,82.21289c-4.02839,-0.00535 -7.99285,1.00709 -11.52539,2.94336l-72,39.27344c-7.71101,4.20403 -12.50822,12.2858 -12.50586,21.06836v93.0039c-0.00269,8.78368 4.79543,16.86647 12.50781,21.07032l72,39.27343c7.1595,3.92484 15.82683,3.92484 22.98633,0l72,-39.27343c7.71162,-4.20436 12.50894,-12.28705 12.50586,-21.07032v-93.0039c0.00197,-8.78298 -4.79605,-16.86485 -12.50781,-21.06836l-72,-39.27344c-3.5134,-1.92578 -7.45437,-2.93788 -11.46094,-2.94336zM48,88v16h24v-16zM255.98828,98.2207c1.34358,-0.00176 2.66579,0.33619 3.84375,0.98242l67.46094,36.79688l-71.29297,38.88867l-71.29297,-38.88867l67.46094,-36.79687c1.171,-0.64242 2.48467,-0.98024 3.82031,-0.98242zM440,112v16h24v-16zM48,128v16h24v-16zM176,149.47656l72,39.27149v93.77539l-67.83008,-37c-2.57055,-1.40065 -4.17014,-4.09411 -4.16992,-7.02149zM336,149.47656v89.02539c0.00022,2.92738 -1.59937,5.62084 -4.16992,7.02149l-67.83008,37v-93.77539zM424,160h56v80h-56zM48,168v16h24v-16zM440,176v16h24v-16zM440,208v16h24v-16zM32,224h56v96h-56zM48,248v16h24v-16zM360,256v16h-16v16h16v16h16v-16h16v-16h-16v-16zM424,256h56v64h-56zM48,280v16h24v-16zM440,280v16h24v-16zM32,336h448v40c-0.00505,4.41618 -3.58382,7.99495 -8,8h-432c-4.41618,-0.00505 -7.99495,-3.58382 -8,-8zM214.24609,400h83.50782l20,80h-123.50782z"></path></g></g></svg>