<?xml version="1.0" encoding="utf-8"?>
<!-- Generator: Adobe Illustrator 26.5.0, SVG Export Plug-In . SVG Version: 6.00 Build 0)  -->
<svg version="1.1" id="Layer_1" xmlns="http://www.w3.org/2000/svg" xmlns:xlink="http://www.w3.org/1999/xlink" x="0px" y="0px"
	 viewBox="0 0 19.7 4.6" style="enable-background:new 0 0 19.7 4.6;" xml:space="preserve">
<style type="text/css">
	.st0{fill:#FFFFFF;}
</style>
<g>
	<path class="st0" d="M15.2,4.3c0,0,0,0.1,0.1,0.1c0,0,0.1,0,0.1-0.1C15.4,4.3,15.3,4.3,15.2,4.3L15.2,4.3z"/>
	<path class="st0" d="M15.8,3.9c0.1,0,0.3,0,0.4,0C16.1,3.8,16,3.8,15.8,3.9z"/>
	<path class="st0" d="M6.8,0.4c0.1,0,0.2,0,0.3,0C7,0.3,6.9,0.3,6.8,0.4z"/>
	<path class="st0" d="M11.3,4.4c0.1,0,0.3,0,0.4,0C11.6,4.3,11.4,4.4,11.3,4.4z"/>
	<path class="st0" d="M15.8,0.1C15.9,0.1,15.9,0.1,15.8,0.1L15.8,0.1c0.3,0,0.5,0,0.8,0c0.1,0,0.2,0,0.3,0c0.1,0,0.2,0,0.3,0
		c-0.1,0-0.3-0.1-0.4,0c-0.1,0-0.1,0-0.2,0l0,0l0,0l0,0l0,0C16.4,0.1,16.2,0.1,15.8,0.1c0,0-0.1,0-0.1,0c-0.1,0-0.2,0-0.3,0
		C15.6,0.1,15.7,0.1,15.8,0.1z"/>
	<path class="st0" d="M13,4.5c0.1,0,0.2,0,0.3,0C13.2,4.4,13.1,4.5,13,4.5z"/>
	<path class="st0" d="M14.1,4.5c0.1,0,0.2,0,0.2,0C14.2,4.4,14.2,4.4,14.1,4.5z"/>
	<path class="st0" d="M12.9,4.3C12.9,4.3,12.8,4.3,12.9,4.3L12.9,4.3L12.9,4.3c-0.1,0-0.2,0.1-0.2,0.1c-0.1-0.1-0.2,0-0.3,0h-0.1
		h0.1c0.1,0.1,0.2,0,0.2,0C12.7,4.4,12.8,4.4,12.9,4.3C12.9,4.4,12.9,4.4,12.9,4.3c0.1,0.1,0.2,0.1,0.1,0C13,4.2,13,4.2,12.9,4.3z"
		/>
	<path class="st0" d="M19.4,0.5L19.4,0.5c-0.1,0-0.2,0-0.3,0c-0.1,0-0.1,0-0.2,0H19C19.1,0.5,19.2,0.5,19.4,0.5z"/>
	<path class="st0" d="M10.7,0.2C10.8,0.2,10.8,0.2,10.7,0.2C10.8,0.2,10.8,0.2,10.7,0.2C10.7,0.1,10.7,0.2,10.7,0.2
		c-0.1,0-0.2,0-0.2,0C10.6,0.2,10.6,0.3,10.7,0.2z"/>
	<path class="st0" d="M11.9,4.4c0,0,0.1,0,0.2,0C12,4.4,12,4.3,11.9,4.4C11.9,4.3,11.9,4.4,11.9,4.4z"/>
	<path class="st0" d="M15.6,4.4c0.1,0,0.2,0,0.3,0C15.8,4.3,15.7,4.3,15.6,4.4z"/>
	<path class="st0" d="M12.1,0.1C12.1,0,12,0,11.9,0v0.1C12,0.1,12,0,12.1,0.1z"/>
	<path class="st0" d="M18.8,2.3c0.1,0,0.2,0.1,0.2,0C18.9,2.3,18.8,2.3,18.8,2.3z"/>
	<path class="st0" d="M14.6,4.1c0.1,0,0.2,0,0.3,0C14.8,4,14.8,4,14.6,4.1z"/>
	<path class="st0" d="M3.3,0.6C3.3,0.6,3.3,0.5,3.3,0.6C3.2,0.6,3.2,0.6,3.3,0.6C3.2,0.6,3.2,0.6,3.3,0.6L3.3,0.6z"/>
	<path class="st0" d="M15.6,3.9c0.1,0,0.2,0,0.2,0S15.7,3.8,15.6,3.9z"/>
	<polygon class="st0" points="15.8,3.9 15.8,3.9 15.8,3.9 	"/>
	<path class="st0" d="M2.2,0.6c0,0.1,0.1,0.1,0.2,0.1c0,0,0.1,0.1,0.1,0V0.6H2.4C2.3,0.6,2.3,0.6,2.2,0.6L2.2,0.6L2.2,0.6L2.2,0.6z"
		/>
	<path class="st0" d="M0.4,4c0.1,0,0.2,0,0.2,0C0.5,4,0.5,4,0.4,4z"/>
	<path class="st0" d="M0.9,4.2L0.9,4.2c0.1,0,0.2,0,0.3,0l0,0C1.1,4.2,1,4.2,0.9,4.2z"/>
	<path class="st0" d="M11.8,0.2c-0.1,0-0.1-0.1-0.2,0C11.7,0.2,11.8,0.2,11.8,0.2z"/>
	<path class="st0" d="M8.1,0.4c0.1,0,0.1,0,0.2,0C8.3,0.3,8.2,0.3,8.1,0.4C8.1,0.3,8,0.3,8,0.3H7.9H8C8.1,0.3,8.1,0.3,8.1,0.4z"/>
	<path class="st0" d="M13.4,4.3c0.1,0.1,0.1,0,0.2,0C13.5,4.3,13.5,4.3,13.4,4.3z"/>
	<path class="st0" d="M15,4.3c-0.1,0-0.2,0-0.3,0l0,0C14.8,4.4,14.9,4.4,15,4.3C14.9,4.4,14.9,4.4,15,4.3z"/>
	<path class="st0" d="M2.6,0.6L2.6,0.6C2.6,0.6,2.6,0.5,2.6,0.6C2.6,0.5,2.5,0.5,2.6,0.6C2.5,0.6,2.5,0.6,2.6,0.6z"/>
	<path class="st0" d="M12.5,4.5c-0.1,0-0.2,0-0.3,0C12.3,4.6,12.4,4.6,12.5,4.5z"/>
	<path class="st0" d="M14.9,4.4c0.1,0,0.2,0,0.3,0C15.1,4.4,15,4.4,14.9,4.4z"/>
	<path class="st0" d="M3.6,0.7L3.6,0.7C3.6,0.6,3.6,0.6,3.6,0.7C3.6,0.6,3.5,0.6,3.6,0.7C3.5,0.7,3.5,0.7,3.6,0.7z"/>
	<path class="st0" d="M5.1,4.4c0.1,0,0.1,0,0.2,0C5.2,4.3,5.1,4.3,5.1,4.4z"/>
	<path class="st0" d="M15.2,3.9C15.2,3.9,15.2,4,15.2,3.9c0.1,0,0.1,0.1,0.2,0C15.3,3.9,15.3,3.9,15.2,3.9z"/>
	<path class="st0" d="M12.9,0.1C12.9,0.1,12.9,0,12.9,0.1C12.8,0.1,12.8,0.1,12.9,0.1C12.8,0.1,12.9,0.1,12.9,0.1L12.9,0.1z"/>
	<path class="st0" d="M14.5,4.2c0.1,0,0.1,0,0.2,0l0,0C14.5,4.1,14.5,4.1,14.5,4.2z"/>
	<path class="st0" d="M14.7,4.2c0.1,0,0.1,0,0.2,0C14.8,4.1,14.7,4.1,14.7,4.2z"/>
	<path class="st0" d="M5.1,4.2c-0.1,0-0.2,0-0.3,0c0-0.1-0.1,0-0.1-0.1c-0.1,0-0.1,0-0.3,0c0.1,0,0.2,0,0.2,0s0.1,0.1,0.2,0.1
		C4.9,4.2,5,4.2,5.1,4.2L5.1,4.2z"/>
	<path class="st0" d="M13.9,4.2c-0.1,0-0.1,0.1-0.2,0.1h-0.1c0,0,0,0.1,0.1,0.1s0.1,0,0.2,0c0.1,0,0.1,0,0.2,0l0,0
		C14,4.1,13.9,4.2,13.9,4.2z"/>
	<path class="st0" d="M19.1,1.2L19.1,1.2c0.1,0,0.1,0,0.1,0c0.1,0,0.2,0,0.3,0l0,0c-0.1,0-0.2,0-0.3,0H19.1z"/>
	<path class="st0" d="M7,0.5L7,0.5C7.1,0.5,7.1,0.5,7,0.5L7,0.5L7,0.5z"/>
	<path class="st0" d="M17.9,0.4c-0.1,0-0.1,0-0.2,0C17.8,0.4,17.8,0.4,17.9,0.4z"/>
	<path class="st0" d="M6.7,0.4C6.6,0.4,6.6,0.4,6.7,0.4c-0.2-0.1-0.2,0-0.3,0C6.5,0.4,6.5,0.4,6.7,0.4C6.6,0.5,6.7,0.4,6.7,0.4z"/>
	<path class="st0" d="M4.6,0.4C4.5,0.4,4.5,0.4,4.6,0.4C4.5,0.4,4.5,0.4,4.6,0.4z"/>
	<path class="st0" d="M17.2,0.3c-0.1,0-0.2,0-0.2,0S17.1,0.3,17.2,0.3z"/>
	<path class="st0" d="M3.3,0.7C3.2,0.7,3.2,0.7,3.3,0.7L3.3,0.7L3.3,0.7z"/>
	<path class="st0" d="M2.1,0.7L2.1,0.7L2.1,0.7C2.2,0.7,2.2,0.7,2.1,0.7L2.1,0.7C2,0.7,2,0.7,2.1,0.7C2,0.7,2,0.7,2.1,0.7L2.1,0.7z"
		/>
	<path class="st0" d="M1.7,0.8L1.7,0.8c0.1,0,0.2,0,0.2-0.1C1.8,0.7,1.8,0.7,1.7,0.8C1.7,0.6,1.6,0.7,1.7,0.8c-0.1,0-0.1,0-0.1,0
		S1.6,0.8,1.7,0.8z"/>
	<path class="st0" d="M8.5,0.4c-0.1,0-0.1,0-0.2,0C8.4,0.5,8.4,0.4,8.5,0.4z"/>
	<path class="st0" d="M15.9,4.3C15.9,4.3,15.9,4.4,15.9,4.3C16,4.4,16,4.4,15.9,4.3C16,4.3,16,4.3,15.9,4.3C16,4.3,16,4.3,15.9,4.3z
		"/>
	<path class="st0" d="M6.8,0.3c0.1,0,0.1,0,0.2,0C6.9,0.2,6.9,0.2,6.8,0.3z"/>
	<path class="st0" d="M17,0.2c0.1,0,0.1,0,0.2,0C17.1,0.2,17.1,0.2,17,0.2z"/>
	<path class="st0" d="M13.7,0.1L13.7,0.1c-0.1,0-0.2,0-0.1,0C13.6,0.1,13.7,0.1,13.7,0.1z"/>
	<path class="st0" d="M15,0c0.1,0,0.1,0,0.2,0C15.1,0,15,0,15,0z"/>
	<path class="st0" d="M8.8,0.4C8.8,0.4,8.9,0.4,8.8,0.4L8.8,0.4L8.8,0.4z"/>
	<path class="st0" d="M18.7,1.5c-0.1,0-0.2,0-0.3,0.1C18.6,1.6,18.7,1.6,18.7,1.5c0.1,0,0.1,0,0.2,0s0.1,0,0.2,0s0.2,0,0.2-0.1
		c-0.1,0-0.2,0-0.3,0l0,0c0,0,0,0-0.1,0C18.8,1.5,18.8,1.5,18.7,1.5z"/>
	<path class="st0" d="M10.4,4.4h0.1C10.5,4.4,10.5,4.4,10.4,4.4L10.4,4.4z"/>
	<path class="st0" d="M4.4,4.4L4.4,4.4C4.5,4.4,4.5,4.4,4.4,4.4C4.5,4.4,4.5,4.4,4.4,4.4L4.4,4.4z"/>
	<path class="st0" d="M7.3,0.3L7.3,0.3C7.2,0.3,7.2,0.3,7.3,0.3C7.2,0.3,7.3,0.4,7.3,0.3C7.3,0.4,7.3,0.3,7.3,0.3z"/>
	<path class="st0" d="M3.5,4.3L3.5,4.3C3.4,4.4,3.5,4.4,3.5,4.3z"/>
	<path class="st0" d="M8.8,0.3C8.8,0.2,8.8,0.2,8.8,0.3C8.7,0.3,8.7,0.3,8.8,0.3C8.7,0.3,8.7,0.3,8.8,0.3L8.8,0.3z"/>
	<path class="st0" d="M5.1,4.2L5.1,4.2L5.1,4.2C5.2,4.2,5.2,4.2,5.1,4.2z"/>
	<path class="st0" d="M7.2,0.3C7.2,0.2,7.2,0.2,7.2,0.3C7.1,0.2,7.1,0.2,7.2,0.3C7.1,0.3,7.2,0.3,7.2,0.3L7.2,0.3z"/>
	<path class="st0" d="M10.4,0.2L10.4,0.2C10.3,0.1,10.3,0.2,10.4,0.2C10.3,0.2,10.4,0.2,10.4,0.2L10.4,0.2z"/>
	<path class="st0" d="M7.7,0.2c0,0,0.1,0,0.1,0.1C7.8,0.2,7.7,0.1,7.7,0.2z"/>
	<path class="st0" d="M11.5,0.1L11.5,0.1L11.5,0.1L11.5,0.1z"/>
	<path class="st0" d="M5.7,0.1L5.7,0.1C5.7,0.1,5.6,0.1,5.7,0.1C5.6,0.1,5.6,0.1,5.7,0.1L5.7,0.1z"/>
	<path class="st0" d="M17.2,1.1L17.2,1.1L17.2,1.1L17.2,1.1L17.2,1.1z"/>
	<polygon class="st0" points="6.1,0.7 6.1,0.7 6.1,0.7 	"/>
	<path class="st0" d="M19.4,2.8L19.4,2.8c0.1,0,0.1,0,0.2,0c0,0,0.1,0,0.2,0h-0.1C19.5,2.7,19.5,2.7,19.4,2.8c0-0.1,0-0.1-0.1-0.1
		l0,0L19.4,2.8c0-0.2-0.2-0.1-0.2-0.2h0.1h0.1c0.1,0,0.1,0,0.2,0s0.1,0,0.2,0c-0.1,0-0.1,0-0.2,0h-0.1c-0.1,0-0.2,0-0.3,0h-0.1l0,0
		c-0.1,0-0.2,0-0.3-0.1c-0.1,0-0.2,0-0.3,0h-0.1l0,0c0.2,0,0.4,0,0.7,0c0.1,0,0.1,0,0.2,0c-0.1,0-0.1,0-0.2,0s-0.1,0-0.2,0
		s-0.2,0-0.3-0.1l0,0c0.1,0,0.1,0,0.2,0c-0.1,0-0.1,0-0.2,0l0,0h-0.1c-0.1,0-0.2,0-0.2,0c-0.1,0-0.3-0.1-0.4,0h-0.1l0,0
		c-0.1,0-0.1,0-0.2,0h0.1h0.1l0,0h0.1c0,0-0.2,0-0.2-0.1h0.1l0,0l0,0l0,0c0.1,0,0.2,0.1,0.3,0c0.1,0,0.2,0,0.2,0s0,0,0.1,0
		s0.1,0,0.2,0c-0.1,0-0.1,0-0.2,0s-0.1,0-0.2,0l0,0l0,0l0,0l0,0c0.1,0,0.2,0,0.2,0c0.1,0,0,0,0,0l0,0c0.1,0,0.1,0,0.2,0l0,0h0.1
		h-0.1l0,0l0,0c0.1,0,0.1,0,0.2,0h0.1c0.1,0,0.1,0,0.2,0c-0.1,0-0.1,0-0.2,0s0-0.1-0.2,0l0,0l0,0l0,0c0,0,0.1,0,0.2,0
		c-0.1,0-0.1,0-0.2,0l0,0l0,0h0.1h0.1c-0.1,0-0.1,0-0.1,0h-0.1c-0.1,0-0.2,0-0.2,0l0,0c0.1,0,0.1,0,0.1,0l0,0c-0.1,0-0.2,0-0.4,0
		c-0.1,0-0.1,0-0.2,0c0.1,0,0.2,0,0.2-0.1l0,0l0,0l0,0c0,0,0.2,0,0.1-0.1h0.1c0.1,0.1,0.1,0,0.2,0l0,0l0,0c0.1,0,0.2,0,0.2,0L18.7,2
		c-0.1,0-0.2,0-0.2,0l0,0l0,0l0,0V1.9c0.1,0,0.1,0,0.2,0h0.1h-0.1c-0.1,0-0.2,0-0.2,0l0,0l0,0l0,0l0,0l0,0l0,0h-0.1
		c0.1,0,0.1,0,0.2,0l0,0c0,0,0,0,0.1,0s0.2,0,0.3,0l0,0h0.1c0.1,0,0.2,0,0.2,0c-0.1,0-0.2,0-0.2,0C19.1,1,19,1,19,1h-0.1l0,0
		c0.1,0,0.2,0,0.3-0.1c-0.1,0-0.2,0-0.3,0l0,0H19c0.1,0,0.2,0,0.3,0c-0.1-0.1-0.2,0-0.3,0c-0.1,0-0.2,0-0.2,0s0,0-0.1,0
		c0,0,0,0-0.1,0c0,0,0.1,0,0.1-0.1c0.1,0,0.1,0,0.2,0c-0.1,0-0.2,0-0.3,0c-0.1,0-0.1,0-0.2,0s-0.2,0-0.3,0l0,0l0,0
		c0-0.1,0.1,0,0.2-0.1c0,0,0,0,0.1,0s0.2,0,0.3,0c0.2-0.1,0.4,0,0.7-0.1c-0.1,0-0.1,0-0.2,0c-0.2,0-0.4,0-0.7,0h-0.1
		c-0.1,0-0.2,0-0.3,0c0,0,0,0-0.1,0h-0.1c0,0,0,0,0.1,0c0.2,0,0.4,0,0.6,0c-0.1,0-0.2-0.1-0.4,0c-0.1-0.1-0.2,0-0.2,0
		c-0.1,0-0.3,0-0.4,0l0,0l0,0c-0.1,0-0.2,0-0.3,0c-0.1-0.1-0.2-0.1-0.2-0.1l0,0l0,0l0,0c0,0,0.1,0,0,0s-0.1,0-0.1,0l0,0
		c0,0,0,0-0.1,0c-0.2,0-0.4,0-0.7,0c0.1,0,0.2,0,0.3,0l0,0c0.1,0,0.1,0,0.2,0l0,0h-0.1c0,0,0.1,0,0.2-0.1c-0.1-0.1-0.2,0-0.3,0l0,0
		c0.1,0,0.1,0,0.2,0s0.2,0,0.4,0l0,0c-0.1,0-0.2,0-0.4,0c-0.2,0-0.3,0-0.5,0l0,0l0,0l0,0l0,0c-0.1,0-0.2,0-0.2,0l0,0l0,0
		c-0.2,0-0.5,0-0.7,0s-0.4,0-0.7,0c-0.1,0-0.1,0-0.1,0.1c-0.1,0-0.1,0-0.2,0c-0.1,0-0.2,0-0.4,0c0,0,0,0-0.1,0h0.1H14h-0.1
		c-0.1,0-0.2,0-0.2,0.1c-0.1,0-0.1,0-0.2,0l0,0l0,0c-0.1,0-0.1,0-0.2,0.1c-0.1,0-0.1,0-0.2,0c-0.1-0.1-0.1-0.1-0.2,0
		c0,0,0.1,0,0.1,0.1c0,0,0,0,0.1,0c-0.1,0.1-0.2,0-0.4,0h-0.1h-0.1c0,0,0.1,0,0-0.1c-0.1,0-0.2,0-0.2,0.1l0,0l0,0l0,0h-0.1
		c-0.3,0-0.5,0-0.7,0l0,0l0,0l0,0l0,0c-0.1-0.1-0.2,0-0.3,0c-0.1-0.1-0.2,0-0.3,0c-0.1,0.1-0.1,0.1-0.2,0.1c0,0-0.1,0-0.2,0l0,0l0,0
		l0,0c0-0.1-0.1-0.1-0.2-0.1c-0.1,0-0.1-0.1-0.2,0c-0.1,0-0.1,0-0.1,0.1l0,0H9.9c0,0,0-0.1-0.1-0.1c0-0.1,0-0.1,0-0.2
		c-0.1,0.1-0.2,0-0.4,0H9.3H9.2c0,0.1,0.1,0.1,0.1,0.1l0,0l0,0l0,0l0,0c0,0-0.1,0-0.2,0C9,0.7,9,0.8,9,0.8c-0.1,0-0.1,0-0.2,0.1l0,0
		c-0.1,0-0.1,0-0.2,0c-0.1,0-0.1,0-0.2,0l0,0l0,0l0,0l0,0l0,0c0,0,0,0-0.1,0l0,0l0,0c-0.1,0-0.1,0-0.2,0c-0.1,0-0.1,0-0.2,0
		c-0.1,0-0.2-0.1-0.3,0c-0.1,0-0.3,0-0.4,0l0,0c0-0.1,0-0.1-0.1-0.1c0,0,0,0,0-0.1H7l0,0c0,0,0.1,0,0,0.1l0,0c-0.2,0-0.4,0-0.6,0
		c0.4-0.2,0.4-0.3,0.2-0.3c-0.1,0-0.2-0.1-0.2,0c-0.1,0-0.2,0-0.3,0c-0.1,0-0.1,0-0.2,0l0,0l0,0c0-0.1,0-0.1,0.1-0.1s0.1-0.1,0-0.1
		c-0.1-0.1-0.2-0.1-0.5,0c0.2,0,0.3-0.1,0.4,0c-0.1,0-0.1,0-0.2,0H5.6c-0.1,0-0.2,0-0.2,0l0,0l0,0l0,0c0-0.1,0-0.1-0.1-0.1l0,0l0,0
		l0,0l0,0H5.2c-0.1,0-0.2,0-0.2,0c-0.1,0-0.1,0-0.2,0l0,0H4.7c0,0,0,0,0.1,0.1H4.7c-0.1,0-0.1,0-0.2,0s-0.1,0-0.2,0l0,0l0,0l0,0l0,0
		h0.1c0,0,0.1,0,0.2,0c-0.1,0-0.2,0-0.2,0C4.1,0.5,4,0.6,3.8,0.6l0,0l0,0c0,0,0.1,0,0,0s-0.1,0-0.1,0.1c0,0,0,0,0,0.1
		c0.1,0.1,0.2,0,0.3,0c0,0,0,0,0,0.1c-0.2,0-0.3,0-0.5,0.1l0,0l0,0C3.4,1,3.3,0.9,3.3,1l0,0l0,0l0,0C3.2,1,3.1,1,3.1,1
		C3,1,2.9,1,2.8,1S2.6,1,2.5,1S2.4,0.9,2.3,1l0,0C2.1,1,1.9,1,1.7,1.1l0,0c-0.1,0-0.1,0-0.2,0C1.2,1,1.1,1,1,1.1c-0.1,0-0.1,0-0.2,0
		s-0.1,0-0.2,0H0.5h0.1c0.1,0,0.1,0,0.2,0s0.1,0,0.2,0l0,0h0.1l0,0c0,0-0.1,0-0.1,0.1H0.9H0.8c0.1,0,0.1,0,0.1,0S1,1.2,1,1.3l0,0
		c0,0-0.1,0-0.1,0.1H0.8c-0.1,0-0.2,0-0.3,0l0,0c0.1,0,0.2,0,0.4,0H1l0,0c0.1,0,0.1,0,0.2,0l0,0c-0.1,0-0.3,0-0.4,0c0,0-0.1,0-0.2,0
		c0.2,0,0.4,0,0.5,0c0,0,0,0.1-0.1,0.1H0.9c-0.1,0-0.2,0-0.2,0c0.1,0,0.1,0,0.2,0c0,0,0,0-0.1,0c0.1,0,0.1,0,0.2,0h0.1l0,0
		c-0.1,0-0.2,0-0.3,0c0.1,0,0.2,0,0.3,0l0,0H1c-0.1,0-0.1,0-0.2,0s-0.2,0-0.2,0c0.1,0,0.2,0,0.2,0h0.1c0.1,0,0.2,0,0.3,0
		c0,0,0,0,0.1,0l0,0c0.1,0,0.1,0,0.2,0l0,0l0,0l0,0H1.4l0,0l0,0l0,0l0,0l0,0l0,0c-0.1,0-0.2,0-0.2,0H1.1h0.1c0.1,0,0.1,0,0.2,0l0,0
		l0,0l0,0l0,0c-0.1,0-0.1,0-0.2,0c0,0-0.1,0-0.1,0.1c0.1,0,0.2,0,0.2,0l0,0l0,0c0.1,0,0.1,0,0.2,0h0.1c0,0,0,0,0.1,0H1.6h0.1
		c-0.1,0-0.2,0-0.3,0l0,0c-0.1,0-0.1,0-0.2,0c0,0,0,0-0.1,0H1h0.1c-0.1,0-0.2,0-0.3,0c0.1,0,0.1,0,0.2,0l0,0l0,0l0,0l0,0
		c0.1,0,0.1,0,0.2,0s0.1,0,0.2,0s0.2,0,0.3,0h0.1l0,0c0.1,0,0.1,0,0.2,0h0.1h0.1h0.1l0,0h0.1l0,0h0.1c0,0,0.1,0,0.1,0.1l0,0
		c-0.1,0-0.1,0-0.2,0c-0.1,0-0.2,0-0.2,0l0,0c0.1,0,0.2,0,0.2,0c0.1,0,0.1,0,0.2,0l0,0H2.5l0,0H2.4l0,0c0,0,0,0-0.1,0
		c-0.2,0-0.3,0-0.4,0s-0.2,0-0.2,0H1.6l0,0c-0.1,0-0.1,0-0.2,0c0.1,0,0.1,0,0.2,0l0,0c-0.1,0-0.2,0-0.3,0c-0.1,0-0.1,0-0.2,0l0,0
		l0,0c-0.1,0-0.1,0-0.2,0c0.1,0,0.1,0,0.2,0c0.2,0,0.4,0,0.7,0c0,0,0,0-0.1,0l0,0l0,0l0,0c-0.1,0-0.2,0-0.3,0s-0.2,0-0.3,0l0,0H1
		l0,0c-0.1,0-0.2,0-0.3,0H0.6c-0.1,0-0.1,0-0.2,0c0.1,0,0.1,0,0.2,0c0,0,0.1,0,0.2,0h0.1H1H0.8c0.1,0,0.2,0,0.3,0
		c-0.1,0-0.2,0-0.3,0c0.2,0,0.4,0,0.6,0l0,0l0,0c-0.1,0-0.2,0-0.2,0c-0.1,0-0.2,0-0.3,0c0.1,0,0.2,0,0.3,0s0.2,0,0.2,0l0,0
		c0,0-0.1,0-0.2,0s-0.1,0-0.2,0c0.1,0,0.1,0,0.2,0h0.1c0.1,0,0.1,0,0.2,0s0.2,0,0.3,0l0,0c-0.1,0-0.2,0-0.2,0.1l0,0l0,0
		c-0.1,0-0.3,0-0.4,0.1c-0.1,0-0.1,0-0.1,0.1C0.6,3,0.5,3.1,0.5,3.1c-0.1,0-0.1,0-0.2,0H0.2C0.1,3.2,0,3.2,0,3.3c0.1,0,0.1,0,0.2,0
		c0,0.1,0.1,0.1,0.2,0l0,0c0,0,0,0.1,0.1,0.1c0,0,0.1,0,0.1,0.1s-0.2,0-0.2,0.1c-0.1,0-0.1,0-0.2,0c0.1,0,0.2,0,0.2,0s0,0,0,0.1l0,0
		c-0.1,0-0.1,0-0.2,0c0.1,0,0.2,0,0.2,0c0.1,0,0.1,0,0.2,0l0,0c0,0,0,0,0,0.1c-0.1,0-0.2,0-0.2,0s-0.1,0-0.2,0c0.1,0,0.2,0,0.2,0
		c0.1,0,0.2,0,0.3,0l0,0c0,0,0,0,0,0.1c-0.1,0-0.2,0-0.2,0.1c0.1,0,0.1,0,0.2,0H0.6c0,0-0.1,0-0.1,0.1h0.1c0.1,0,0.1,0,0.2,0
		C0.6,3.9,0.6,4,0.7,4l0,0C0.8,4.1,0.9,4.1,1,4.1l0,0l0,0l0,0c0.1,0,0.2,0,0.3,0h0.1h0.1c0.1,0,0.1,0,0.2,0h0.1c0.1,0,0.2,0,0.3,0
		c0.1,0,0.3,0.1,0.4,0h0.1h0.1c0.1,0.1,0.2,0,0.3,0s0.2,0,0.3,0s0.2,0,0.2-0.1l0,0c0.1,0,0.1-0.1,0.2-0.1c0.1,0,0.2,0,0.4,0
		c0,0.4-0.1,0.3-0.2,0.4c0.1,0,0.3,0.1,0.3-0.1l0,0l0,0h0.1c0,0,0.1,0,0.1-0.1c0,0,0,0,0-0.1c0.1,0,0-0.1,0-0.1C4.3,4,4.3,4,4.3,4
		s0,0,0.1,0c0,0,0.1,0.1,0.1,0c0.1-0.1,0.1,0,0.2,0c0,0.1,0.1,0,0.2,0.1H5C5,4,5,4,4.9,4l0,0l0,0l0,0H5c0.1-0.1,0.2,0,0.3,0
		c0,0-0.1,0,0,0.1c0,0,0.1,0.1,0.1,0l0,0l0,0c0,0,0,0.1,0.1,0.1s0.1,0,0.2,0h0.1l0,0l0,0l0,0c0.1,0,0.2,0,0.4,0c0.1,0.1,0.2,0,0.3,0
		l0,0l0,0l0,0l0,0l0,0c0.1,0,0.2,0,0.3,0c0.1,0,0.2,0,0.3,0c0.3,0,0.7,0,1,0c0.1,0,0.2,0,0.3,0s0.3,0,0.4,0c0.1,0,0.2,0,0.2,0l0,0
		l0,0l0,0c0.2,0,0.4,0,0.6,0c0.1,0,0.1,0,0.2,0l0,0l0,0l0,0c0.1,0,0.2,0,0.2,0l0,0l0,0l0,0l0,0l0,0c0.1,0,0.2,0,0.3,0l0,0l0,0l0,0
		c0.1,0,0.1,0,0.2,0c0.1,0,0.2,0,0.3,0h0.1c0,0,0,0,0.1,0s0.2,0,0.2,0l0,0c0.1,0,0.3,0.1,0.4,0h0.1c0.1,0,0.2,0,0.2,0H12l0,0
		c0.1,0,0.1,0,0.2,0c0.1,0,0.1,0,0.1-0.1c0,0,0,0,0.1,0h0.1c0,0.1,0.1,0.1,0.1,0.1c0.1,0,0.2,0,0.3,0l0,0c0.1,0,0.1,0,0.2,0l0,0l0,0
		l0,0c0.1,0,0.2,0,0.3,0l0,0l0,0h0.1c0.1,0.1,0.2,0,0.2,0l0,0c0.1,0,0.1,0,0.2,0l0,0l0,0l0,0c0.1,0,0.2,0,0.2,0c0.1,0,0.2,0,0.2,0
		l0,0c-0.1,0-0.1,0-0.2,0l0,0c0.1,0,0.1,0,0.2,0l0,0l0,0l0,0c0.1,0,0.2,0,0.2,0h0.1h0.1h0.1C14.9,4,15,4,15,4l0,0l0,0h0.1h0.1l0,0
		h-0.1c0-0.1,0.2,0,0.2-0.1l0,0c0.1,0,0.1,0,0.2-0.1c0.1,0,0.1,0,0.2,0l0,0c0.1,0.1,0.2-0.1,0.3,0c0.1,0,0.2,0,0.3,0
		c0.3,0,0.5,0,0.8,0c0.1,0,0.3,0,0.4,0s0.2,0,0.2-0.1l0,0l0,0c0.1,0,0.1,0,0.2,0l0,0c0.1,0,0.1,0,0.2,0c0-0.1-0.2,0-0.1-0.1l0,0l0,0
		h0.1c0,0-0.1,0-0.1-0.1l0,0c0.1,0,0.1,0,0.2,0c-0.1-0.1-0.2-0.1-0.2,0c-0.1,0-0.1,0-0.2-0.1l0,0l0,0l0,0c0.1,0,0.2,0,0.2,0l0,0l0,0
		l0,0l0,0h0.1c0.1,0,0.2,0,0.3-0.1c-0.1,0-0.3,0-0.4,0c0,0,0,0-0.1,0H18l0,0l0,0h0.1h0.1c0.1,0,0.2,0,0.3,0l0,0l0,0l0,0
		c0.1,0,0.2,0,0.3,0c0.1,0,0.1,0,0.1,0c0.1,0,0.1,0,0.2,0h0.1c0,0,0,0-0.1,0H19c0.1,0,0.1,0,0.2,0c-0.1,0-0.1,0-0.2,0l0,0l0,0
		c0.1,0,0.2,0,0.3,0c0,0,0.1,0,0.2,0c-0.1,0-0.1,0-0.2,0s-0.2,0-0.2,0l0,0c0.1,0,0.1,0,0.2,0c0,0,0.1,0,0.2,0c-0.1,0-0.1,0-0.2,0
		l0,0l0,0c0,0,0.1,0,0.2,0c-0.1,0-0.1,0-0.2,0h-0.2C19.2,2.9,19.3,2.8,19.4,2.8L19.4,2.8z M17,3.7L17,3.7L17,3.7L17,3.7z M13.7,4.1
		L13.7,4.1L13.7,4.1L13.7,4.1z M13.2,4.1L13.2,4.1L13.2,4.1L13.2,4.1z M10,4.1C9.9,4.1,9.9,4.1,10,4.1C9.9,4.1,9.9,4.1,10,4.1
		L10,4.1L10,4.1C10,4.1,9.9,4.1,10,4.1L10,4.1L10,4.1L10,4.1L10,4.1z M9,4.2L9,4.2L9,4.2L9,4.2L9,4.2z M2.1,0.9L2.1,0.9L2.1,0.9
		L2.1,0.9z M3.9,0.8L3.9,0.8L3.9,0.8L3.9,0.8L3.9,0.8z M15,3.8L15,3.8L15,3.8L15,3.8L15,3.8L15,3.8L15,3.8z M3.9,4L3.9,4L3.9,4
		L3.9,4z M6.1,0.7L6.1,0.7L6.1,0.7L6.1,0.7L6.1,0.7L6.1,0.7L6.1,0.7L6.1,0.7z M16.1,0.3L16.1,0.3L16.1,0.3L16.1,0.3L16.1,0.3
		L16.1,0.3L16.1,0.3z M16,0.4L16,0.4L16,0.4L16,0.4z M18.3,1.2L18.3,1.2L18.3,1.2L18.3,1.2z M18.2,1.9L18.2,1.9L18.2,1.9L18.2,1.9z
		 M14.4,3.9L14.4,3.9L14.4,3.9L14.4,3.9z M13.3,4L13.3,4L13.3,4L13.3,4L13.3,4L13.3,4L13.3,4z M11,4.1L11,4.1L11,4.1L11,4.1z M2.4,1
		L2.4,1L2.4,1L2.4,1L2.4,1z M8,0.7L8,0.7L8,0.7L8,0.7L8,0.7z M1.5,3L1.5,3L1.5,3L1.5,3z M11.5,0.7L11.5,0.7L11.5,0.7L11.5,0.7
		L11.5,0.7L11.5,0.7L11.5,0.7z M12.1,0.6L12.1,0.6C12.1,0.6,12,0.6,12.1,0.6C12,0.6,12.1,0.6,12.1,0.6z M15,3.5L15,3.5
		C15,3.6,15,3.6,15,3.5L15,3.5L15,3.5z M6.2,4L6.2,4L6.2,4L6.2,4z M3.7,3.6L3.7,3.6L3.7,3.6L3.7,3.6z M13,0.6L13,0.6L13,0.6L13,0.6z
		 M12.6,3.8L12.6,3.8L12.6,3.8L12.6,3.8z M12.8,3.8C12.8,3.8,12.7,3.8,12.8,3.8C12.7,3.8,12.7,3.8,12.8,3.8
		C12.7,3.8,12.8,3.8,12.8,3.8c0.1,0,0.2,0,0.3,0l0,0C12.9,3.8,12.8,3.8,12.8,3.8z M3.7,3.4L3.7,3.4L3.7,3.4L3.7,3.4z M7.5,1.3
		L7.5,1.3L7.5,1.3L7.5,1.3z M7.6,3.4L7.6,3.4L7.6,3.4L7.6,3.4z M3.2,3.3L3.2,3.3L3.2,3.3L3.2,3.3z M3.5,3.3L3.5,3.3L3.5,3.3L3.5,3.3
		L3.5,3.3z M15.3,1.2L15.3,1.2L15.3,1.2L15.3,1.2z M14.8,1.1L14.8,1.1L14.8,1.1L14.8,1.1z M17.1,2.4L17.1,2.4L17.1,2.4L17.1,2.4
		L17.1,2.4z M11.1,1.1L11.1,1.1L11.1,1.1L11.1,1.1z M2.5,3.1L2.5,3.1L2.5,3.1L2.5,3.1L2.5,3.1z M2.8,3.2L2.8,3.2L2.8,3.2L2.8,3.2z
		 M10.7,3.3L10.7,3.3L10.7,3.3L10.7,3.3z M8.2,1.2L8.2,1.2L8.2,1.2L8.2,1.2z M15.6,0.8L15.6,0.8L15.6,0.8L15.6,0.8z M13.7,0.7
		L13.7,0.7L13.7,0.7L13.7,0.7z M10.5,0.9L10.5,0.9L10.5,0.9L10.5,0.9z M9.4,1.2L9.4,1.2L9.4,1.2z M4.8,1.2L4.8,1.2L4.8,1.2L4.8,1.2z
		 M7.5,4L7.5,4L7.5,4L7.5,4z M7.5,3.4L7.5,3.4C7.5,3.4,7.5,3.3,7.5,3.4L7.5,3.4z M8.8,3.5L8.8,3.5L8.8,3.5L8.8,3.5z M11.3,3.8
		L11.3,3.8L11.3,3.8L11.3,3.8z M11.6,3.6L11.6,3.6L11.6,3.6L11.6,3.6z M17.2,1.1L17.2,1.1L17.2,1.1L17.2,1.1L17.2,1.1L17.2,1.1
		L17.2,1.1L17.2,1.1z M16.1,0.8L16.1,0.8L16.1,0.8L16.1,0.8z M15.5,0.6L15.5,0.6L15.5,0.6L15.5,0.6z M9.6,1.2L9.6,1.2L9.6,1.2z
		 M8.9,0.9L8.9,0.9L8.9,0.9z M8.4,1L8.4,1L8.4,1L8.4,1L8.4,1z M7.6,1.2L7.6,1.2L7.6,1.2L7.6,1.2z M2.2,3L2.2,3L2.2,3L2.2,3z M7.1,4
		C7.1,4,7.2,4,7.1,4C7.2,4,7.2,4,7.1,4C7.2,4,7.2,4,7.1,4C7.2,4,7.2,4,7.1,4C7.2,4,7.1,4,7.1,4L7.1,4z M12.3,3.9
		C12.3,3.9,12.3,3.8,12.3,3.9C12.3,3.8,12.3,3.8,12.3,3.9C12.3,3.8,12.3,3.9,12.3,3.9L12.3,3.9z M12.9,3.8L12.9,3.8L12.9,3.8
		L12.9,3.8C12.9,3.8,13,3.8,12.9,3.8C13,3.8,12.9,3.8,12.9,3.8z M13.7,3.8L13.7,3.8L13.7,3.8L13.7,3.8L13.7,3.8z M14,3.8L14,3.8
		L14,3.8L14,3.8L14,3.8L14,3.8z M14,3.7C13.9,3.6,13.9,3.6,14,3.7C14,3.6,14,3.6,14,3.7L14,3.7z M16.2,0.5L16.2,0.5L16.2,0.5
		L16.2,0.5z M15.8,0.6L15.8,0.6L15.8,0.6L15.8,0.6z M13.9,0.6L13.9,0.6L13.9,0.6L13.9,0.6z M13.1,0.6L13.1,0.6L13.1,0.6L13.1,0.6
		L13.1,0.6z M8.9,0.8C8.9,0.8,8.9,0.9,8.9,0.8C8.9,0.9,8.9,0.9,8.9,0.8C8.9,0.9,8.9,0.8,8.9,0.8L8.9,0.8z M7.1,4L7.1,4L7.1,4L7.1,4z
		 M7.6,3.8L7.6,3.8L7.6,3.8L7.6,3.8L7.6,3.8z M8.3,3.5L8.3,3.5L8.3,3.5L8.3,3.5z M10.1,3.5L10.1,3.5L10.1,3.5L10.1,3.5L10.1,3.5z
		 M13.1,3.9L13.1,3.9L13.1,3.9L13.1,3.9z M12.9,3.7L12.9,3.7L12.9,3.7L12.9,3.7z M14.2,3.4L14.2,3.4L14.2,3.4
		C14.2,3.3,14.2,3.4,14.2,3.4z M16.3,0.6L16.3,0.6L16.3,0.6L16.3,0.6z M15.7,0.6L15.7,0.6L15.7,0.6L15.7,0.6L15.7,0.6L15.7,0.6
		L15.7,0.6C15.7,0.6,15.7,0.5,15.7,0.6C15.7,0.5,15.7,0.5,15.7,0.6C15.7,0.5,15.7,0.6,15.7,0.6L15.7,0.6z M14.1,0.6L14.1,0.6
		L14.1,0.6L14.1,0.6z M12.7,0.6L12.7,0.6L12.7,0.6L12.7,0.6z M10.6,0.7L10.6,0.7C10.6,0.7,10.5,0.7,10.6,0.7
		C10.5,0.7,10.5,0.7,10.6,0.7C10.5,0.7,10.6,0.7,10.6,0.7L10.6,0.7L10.6,0.7z M5,1L5,1L5,1L5,1z M1.7,3C1.7,3,1.8,3,1.7,3L1.7,3
		L1.7,3z M1.4,3.3L1.4,3.3L1.4,3.3L1.4,3.3z M5.8,3.6L5.8,3.6L5.8,3.6L5.8,3.6z M8.8,4L8.8,4L8.8,4L8.8,4z M13.1,4L13.1,4L13.1,4
		L13.1,4z M13.1,4L13.1,4L13.1,4L13.1,4z M13.3,3.8L13.3,3.8L13.3,3.8L13.3,3.8z M13.8,3.8C13.9,3.8,13.9,3.8,13.8,3.8
		C13.9,3.8,13.9,3.8,13.8,3.8L13.8,3.8C13.9,3.8,13.9,3.8,13.8,3.8C13.9,3.8,13.9,3.8,13.8,3.8C13.9,3.8,13.9,3.8,13.8,3.8z
		 M15.8,0.5L15.8,0.5L15.8,0.5L15.8,0.5z M12.7,0.6L12.7,0.6L12.7,0.6L12.7,0.6z M12.3,0.5L12.3,0.5L12.3,0.5L12.3,0.5z M10.7,0.6
		L10.7,0.6L10.7,0.6L10.7,0.6L10.7,0.6z M2.1,1.1L2.1,1.1L2.1,1.1L2.1,1.1z M1.5,3.5L1.5,3.5L1.5,3.5L1.5,3.5z M13.9,3.8L13.9,3.8
		L13.9,3.8L13.9,3.8z M14,3.9L14,3.9L14,3.9L14,3.9L14,3.9z M15.8,0.4L15.8,0.4L15.8,0.4L15.8,0.4z M13.9,0.3L13.9,0.3L13.9,0.3
		L13.9,0.3z M9.8,0.7L9.8,0.7L9.8,0.7L9.8,0.7L9.8,0.7z M9.2,0.7L9.2,0.7L9.2,0.7L9.2,0.7z M9.1,0.7L9.1,0.7
		C9.1,0.7,9.1,0.8,9.1,0.7C9.1,0.8,9.1,0.8,9.1,0.7C9.1,0.8,9.1,0.7,9.1,0.7L9.1,0.7z M8,0.8L8,0.8L8,0.8L8,0.8z M6.4,1L6.4,1L6.4,1
		L6.4,1z M2.8,1.1L2.8,1.1L2.8,1.1L2.8,1.1C2.8,1.1,2.8,1,2.8,1.1C2.8,1,2.8,1,2.8,1.1C2.8,1,2.8,1.1,2.8,1.1z M2.1,2.3L2.1,2.3
		L2.1,2.3L2.1,2.3z M1.9,2.4L1.9,2.4L1.9,2.4L1.9,2.4z M1.2,3.5L1.2,3.5L1.2,3.5L1.2,3.5z M1.9,4L1.9,4L1.9,4L1.9,4L1.9,4z M3.2,3.9
		L3.2,3.9L3.2,3.9L3.2,3.9z M3.3,4.1L3.3,4.1L3.3,4.1L3.3,4.1L3.3,4.1L3.3,4.1z M6.6,4L6.6,4L6.6,4L6.6,4z M9.8,4.1L9.8,4.1L9.8,4.1
		L9.8,4.1z M11.2,4.1L11.2,4.1L11.2,4.1L11.2,4.1L11.2,4.1z M12,4L12,4L12,4L12,4z M14,3.9L14,3.9L14,3.9L14,3.9L14,3.9z M18,0.8
		L18,0.8L18,0.8L18,0.8L18,0.8z M16.9,0.5L16.9,0.5L16.9,0.5L16.9,0.5z M15.7,0.4L15.7,0.4C15.7,0.3,15.7,0.3,15.7,0.4
		C15.7,0.3,15.7,0.3,15.7,0.4z M12.6,0.4C12.5,0.4,12.5,0.4,12.6,0.4L12.6,0.4C12.5,0.5,12.6,0.4,12.6,0.4L12.6,0.4L12.6,0.4
		L12.6,0.4z M8.3,0.8L8.3,0.8L8.3,0.8L8.3,0.8L8.3,0.8z M7.3,0.7L7.3,0.7L7.3,0.7L7.3,0.7L7.3,0.7L7.3,0.7L7.3,0.7L7.3,0.7z
		 M6.8,0.8L6.8,0.8L6.8,0.8L6.8,0.8L6.8,0.8L6.8,0.8L6.8,0.8z M6.4,0.9L6.4,0.9L6.4,0.9L6.4,0.9L6.4,0.9L6.4,0.9z M5.1,0.5L5.1,0.5
		L5.1,0.5L5.1,0.5L5.1,0.5z M5.4,0.7L5.4,0.7L5.4,0.7L5.4,0.7z M4.6,0.8L4.6,0.8L4.6,0.8L4.6,0.8z M2.4,1.1C2.4,1,2.4,1,2.4,1.1
		C2.4,1,2.4,1,2.4,1.1L2.4,1.1z M2.7,2.2L2.7,2.2L2.7,2.2L2.7,2.2z M1.9,2.4L1.9,2.4L1.9,2.4L1.9,2.4z M1.1,2.5L1.1,2.5L1.1,2.5
		L1.1,2.5z M1.3,2.5L1.3,2.5L1.3,2.5L1.3,2.5z M1.2,2.5L1.2,2.5L1.2,2.5L1.2,2.5L1.2,2.5L1.2,2.5L1.2,2.5z M1,2.5L1,2.5L1,2.5L1,2.5
		z M5.9,3.8L5.9,3.8L5.9,3.8L5.9,3.8z M7,4.1L7,4.1L7,4.1L7,4.1L7,4.1z M8.6,4.1C8.6,4.1,8.7,4.1,8.6,4.1C8.7,4.1,8.7,4.1,8.6,4.1
		C8.7,4.1,8.7,4.1,8.6,4.1C8.6,4.1,8.7,4.1,8.6,4.1z M9,4.1L9,4.1L9,4.1L9,4.1z M9.1,4.1L9.1,4.1L9.1,4.1L9.1,4.1z M11.1,4.1
		L11.1,4.1L11.1,4.1L11.1,4.1L11.1,4.1z M13.3,4.1L13.3,4.1L13.3,4.1L13.3,4.1L13.3,4.1z M18.1,2.5h0.1l0,0
		C18.2,2.5,18.2,2.5,18.1,2.5L18.1,2.5z M17.3,2.2L17.3,2.2L17.3,2.2L17.3,2.2L17.3,2.2z M17.9,2L17.9,2L17.9,2L17.9,2z M18.3,1.7
		c-0.1,0-0.1,0-0.2,0l0,0C18.2,1.7,18.2,1.7,18.3,1.7L18.3,1.7L18.3,1.7L18.3,1.7L18.3,1.7z M18.2,1.7L18.2,1.7L18.2,1.7L18.2,1.7
		L18.2,1.7z M17.7,0.5C17.6,0.5,17.6,0.5,17.7,0.5C17.6,0.5,17.6,0.5,17.7,0.5C17.6,0.5,17.6,0.5,17.7,0.5z M15.8,0.2L15.8,0.2
		L15.8,0.2L15.8,0.2z M13.5,0.3L13.5,0.3C13.5,0.3,13.4,0.3,13.5,0.3C13.4,0.3,13.5,0.3,13.5,0.3z M10,0.5L10,0.5L10,0.5L10,0.5z
		 M6.9,0.8L6.9,0.8C6.9,0.8,6.9,0.7,6.9,0.8C6.9,0.7,6.9,0.7,6.9,0.8C6.9,0.7,6.9,0.7,6.9,0.8z M6.2,0.6L6.2,0.6L6.2,0.6L6.2,0.6
		L6.2,0.6z M4.8,0.5L4.8,0.5L4.8,0.5L4.8,0.5z M5.3,0.7L5.3,0.7L5.3,0.7L5.3,0.7z M4.6,0.8L4.6,0.8L4.6,0.8L4.6,0.8z M1.5,1L1.5,1
		L1.5,1L1.5,1L1.5,1z M1.3,1.9L1.3,1.9L1.3,1.9L1.3,1.9L1.3,1.9z M1.6,2.4L1.6,2.4H1.5l0,0C1.5,2.4,1.5,2.4,1.6,2.4z M1.1,2.6
		L1.1,2.6L1.1,2.6L1.1,2.6z M1.7,2.5L1.7,2.5L1.7,2.5L1.7,2.5z M3.9,4.1C3.8,4.1,3.8,4.1,3.9,4.1C3.8,4.1,3.8,4.1,3.9,4.1
		C3.8,4.1,3.8,4.1,3.9,4.1z M4,4L4,4L4,4L4,4z M6.8,4.1L6.8,4.1L6.8,4.1L6.8,4.1z M9,4.1L9,4.1L9,4.1L9,4.1z M15,3.8L15,3.8L15,3.8
		L15,3.8z M19.3,2.8L19.3,2.8L19.3,2.8L19.3,2.8z M17.9,2L17.9,2L17.9,2L17.9,2z M18.4,2L18.4,2L18.4,2L18.4,2L18.4,2z M16.3,0.2
		L16.3,0.2L16.3,0.2L16.3,0.2z M16.1,0.2L16.1,0.2L16.1,0.2L16.1,0.2z M15.8,0.2L15.8,0.2L15.8,0.2L15.8,0.2z M14.6,0.1L14.6,0.1
		L14.6,0.1L14.6,0.1z M13.5,0.2L13.5,0.2L13.5,0.2L13.5,0.2z M3,0.8L3,0.8L3,0.8L3,0.8z M0.9,1.5L0.9,1.5L0.9,1.5L0.9,1.5z M0.8,1.6
		L0.8,1.6c0.1,0,0.1,0,0.2,0l0,0C1,1.6,1,1.6,0.8,1.6C0.9,1.6,0.9,1.6,0.8,1.6z M0.7,2.5L0.7,2.5L0.7,2.5L0.7,2.5L0.7,2.5z M0.4,3.3
		L0.4,3.3L0.4,3.3z M0.5,3.9L0.5,3.9L0.5,3.9L0.5,3.9z M7.8,4.2L7.8,4.2L7.8,4.2L7.8,4.2z M8.8,4.2L8.8,4.2L8.8,4.2L8.8,4.2L8.8,4.2
		z M10.8,4.2L10.8,4.2L10.8,4.2L10.8,4.2z M12.1,4.2L12.1,4.2L12.1,4.2L12.1,4.2z M12.3,4.1L12.3,4.1L12.3,4.1L12.3,4.1z M13.8,4.1
		L13.8,4.1C13.8,4.1,13.9,4.1,13.8,4.1C13.9,4.1,13.9,4.1,13.8,4.1C13.9,4.1,13.9,4.1,13.8,4.1z M16.2,3.7L16.2,3.7L16.2,3.7
		L16.2,3.7L16.2,3.7L16.2,3.7z M18,3.4L18,3.4L18,3.4L18,3.4z M19.2,3.1L19.2,3.1L19.2,3.1L19.2,3.1z"/>
	<path class="st0" d="M0.9,2.3c-0.1,0-0.1,0-0.2,0C0.8,2.3,0.9,2.3,0.9,2.3z"/>
	<path class="st0" d="M19.1,3.2c0.1,0,0.1,0,0.2,0C19.2,3.2,19.2,3.1,19.1,3.2z"/>
	<path class="st0" d="M18.5,3.3c0.1,0,0.2,0,0.3,0l0,0C18.7,3.2,18.6,3.2,18.5,3.3L18.5,3.3z"/>
	<path class="st0" d="M0.6,1.8L0.6,1.8H0.5c-0.1,0-0.2,0-0.3,0l0,0c0.1,0,0.2,0,0.3,0C0.5,1.8,0.5,1.8,0.6,1.8z"/>
	<path class="st0" d="M18.8,1.7c0,0,0.1,0,0.2,0h0.1c0,0,0,0-0.1,0C19,1.7,18.9,1.7,18.8,1.7c0,0-0.1,0-0.2,0l0,0
		C18.7,1.7,18.8,1.7,18.8,1.7z"/>
</g>
</svg>
