<?xml version="1.0" encoding="utf-8"?>
<!-- Generator: Adobe Illustrator 16.0.3, SVG Export Plug-In . SVG Version: 6.00 Build 0)  -->
<!DOCTYPE svg PUBLIC "-//W3C//DTD SVG 1.1//EN" "http://www.w3.org/Graphics/SVG/1.1/DTD/svg11.dtd">
<svg version="1.1" id="Layer_1" xmlns="http://www.w3.org/2000/svg" xmlns:xlink="http://www.w3.org/1999/xlink" x="0px" y="0px"
	 width="595.279px" height="841.891px" viewBox="0 0 595.279 841.891" enable-background="new 0 0 595.279 841.891"
	 xml:space="preserve">
<g id="XMLID_665_">
	<g id="XMLID_667_">
		<rect id="XMLID_669_" x="171.349" y="361.925" fill="#317BBF" width="54.578" height="175.157"/>
		<path id="XMLID_668_" fill="#317BBF" d="M198.004,339.078c17.77,0,31.73-13.962,31.73-31.731s-13.961-31.731-31.73-31.731
			c-17.771,0-31.731,13.962-31.731,31.731S181.503,339.078,198.004,339.078z"/>
	</g>
	<path id="XMLID_666_" fill="#317BBF" d="M312.237,445.695c0-24.115,11.423-39.347,33-39.347c20.309,0,29.193,13.962,29.193,39.347
		c0,25.386,0,91.387,0,91.387h53.309c0,0,0-63.463,0-110.426c0-46.962-26.654-69.809-63.463-69.809s-53.309,29.193-53.309,29.193
		v-24.116h-52.039v175.157h52.039C312.237,537.082,312.237,472.35,312.237,445.695z"/>
</g>
</svg>
