<?xml version="1.0" encoding="utf-8"?>
<!-- Generator: Adobe Illustrator 16.0.3, SVG Export Plug-In . SVG Version: 6.00 Build 0)  -->
<!DOCTYPE svg PUBLIC "-//W3C//DTD SVG 1.1//EN" "http://www.w3.org/Graphics/SVG/1.1/DTD/svg11.dtd">
<svg version="1.1" id="Layer_1" xmlns="http://www.w3.org/2000/svg" xmlns:xlink="http://www.w3.org/1999/xlink" x="0px" y="0px"
	 width="595.279px" height="841.891px" viewBox="0 0 595.279 841.891" enable-background="new 0 0 595.279 841.891"
	 xml:space="preserve">
<path id="XMLID_670_" fill="#317BBF" d="M158.656,520.581c25.386,16.501,55.848,25.386,87.579,25.386
	c106.617,0,166.271-90.117,162.464-170.08c11.424-7.616,20.309-17.77,27.924-29.193c-10.154,5.077-21.577,7.615-33.001,8.885
	c11.424-7.616,20.309-17.77,25.386-31.731c-11.424,6.346-22.847,11.423-36.809,13.962c-10.154-11.423-25.385-17.77-41.886-17.77
	c-36.808,0-63.462,34.27-55.847,69.809c-46.963-2.538-90.117-25.385-118.041-59.655c-15.23,25.385-7.615,59.655,17.77,76.155
	c-8.885,0-17.77-2.538-25.385-7.615c0,26.654,17.77,50.77,45.693,57.116c-7.615,2.538-16.5,2.538-25.385,1.27
	c7.615,22.847,27.923,39.347,53.309,39.347C218.312,515.505,189.118,524.39,158.656,520.581z"/>
</svg>
