<?xml version="1.0" encoding="utf-8"?>
<!-- Generator: Adobe Illustrator 16.0.3, SVG Export Plug-In . SVG Version: 6.00 Build 0)  -->
<!DOCTYPE svg PUBLIC "-//W3C//DTD SVG 1.1//EN" "http://www.w3.org/Graphics/SVG/1.1/DTD/svg11.dtd">
<svg version="1.1" id="Layer_1" xmlns="http://www.w3.org/2000/svg" xmlns:xlink="http://www.w3.org/1999/xlink" x="0px" y="0px"
	 width="595.279px" height="841.891px" viewBox="0 0 595.279 841.891" enable-background="new 0 0 595.279 841.891"
	 xml:space="preserve">
<g id="XMLID_649_">
	<path id="XMLID_656_" fill="#317BBF" d="M297.005,303.539c38.078,0,43.155,0,58.386,1.269c13.962,1.27,21.577,2.539,26.654,5.077
		c6.347,2.539,11.424,5.077,16.5,10.154c5.077,5.077,7.616,10.154,10.154,16.5c2.539,5.077,3.808,12.693,5.077,26.654
		c1.27,15.231,1.27,19.039,1.27,58.386c0,38.077,0,43.154-1.27,58.386c-1.27,13.961-2.538,21.577-5.077,26.654
		c-2.538,6.346-5.077,11.423-10.154,16.5c-5.076,5.077-10.153,7.615-16.5,10.154c-5.077,2.538-12.692,3.808-26.654,5.077
		c-15.23,1.269-19.039,1.269-58.386,1.269c-38.077,0-43.154,0-58.386-1.269c-13.961-1.27-21.577-2.539-26.654-5.077
		c-6.346-2.539-11.423-5.077-16.5-10.154s-7.615-10.154-10.154-16.5c-2.538-5.077-3.808-12.693-5.077-26.654
		c-1.269-15.231-1.269-19.039-1.269-58.386c0-38.078,0-43.155,1.269-58.386c1.27-13.961,2.539-21.577,5.077-26.654
		c2.539-6.346,5.077-11.423,10.154-16.5c5.077-5.077,10.154-7.616,16.5-10.154c5.077-2.539,12.693-3.808,26.654-5.077
		C255.12,303.539,258.928,303.539,297.005,303.539 M297.005,278.154c-39.347,0-44.424,0-59.654,1.27
		c-15.231,1.269-25.386,2.539-34.271,6.346s-17.77,8.885-25.385,16.5c-7.615,7.616-12.692,16.5-16.5,25.385
		s-6.347,19.039-6.347,34.27c-1.27,15.231-1.27,20.308-1.27,59.655c0,39.347,0,44.424,1.27,59.654
		c1.27,15.231,2.539,25.386,6.347,34.271s8.885,17.77,16.5,25.385s16.5,12.692,25.385,16.5s19.039,6.347,34.271,6.347
		c15.23,1.27,20.308,1.27,59.654,1.27s44.424,0,59.655-1.27c15.23-1.27,25.385-2.539,34.27-6.347s17.77-8.885,25.386-16.5
		c7.615-7.615,12.692-16.5,16.5-25.385s6.346-19.039,6.346-34.271c1.27-15.23,1.27-20.308,1.27-59.654
		c0-39.347,0-44.424-1.27-59.655c-1.269-15.231-2.538-25.385-6.346-34.27s-8.885-17.77-16.5-25.385
		c-7.616-7.615-16.501-12.692-25.386-16.5s-19.039-6.346-34.27-6.346C341.429,278.154,336.352,278.154,297.005,278.154"/>
	<path id="XMLID_653_" fill="#317BBF" d="M297.005,346.694c-40.616,0-73.616,33-73.616,73.617s33,73.616,73.616,73.616
		s73.617-33,73.617-73.616S338.891,346.694,297.005,346.694 M297.005,468.542c-26.654,0-48.231-21.577-48.231-48.231
		s21.577-48.232,48.231-48.232s48.231,21.578,48.231,48.232S323.659,468.542,297.005,468.542"/>
	<path id="XMLID_652_" fill="#317BBF" d="M390.93,344.155c0,8.885-7.615,17.77-17.77,17.77c-8.885,0-17.77-7.616-17.77-17.77
		c0-8.885,7.615-17.77,17.77-17.77C383.315,327.655,390.93,335.271,390.93,344.155"/>
</g>
</svg>
