<?xml version="1.0" encoding="utf-8"?>
<!-- Generator: Adobe Illustrator 16.0.3, SVG Export Plug-In . SVG Version: 6.00 Build 0)  -->
<!DOCTYPE svg PUBLIC "-//W3C//DTD SVG 1.1//EN" "http://www.w3.org/Graphics/SVG/1.1/DTD/svg11.dtd">
<svg version="1.1" id="Layer_1" xmlns="http://www.w3.org/2000/svg" xmlns:xlink="http://www.w3.org/1999/xlink" x="0px" y="0px"
	 width="595.279px" height="841.891px" viewBox="0 0 595.279 841.891" enable-background="new 0 0 595.279 841.891"
	 xml:space="preserve">
<path id="XMLID_646_" fill="#317BBF" d="M214.504,445.695c3.808,1.27,7.615,0,8.885-5.077c1.27-2.538,2.538-11.423,3.808-13.962
	c1.27-5.076,1.27-6.346-2.538-10.153c-7.616-8.885-11.424-19.039-11.424-35.54c0-45.693,34.27-85.04,87.579-85.04
	c48.231,0,73.616,29.193,73.616,68.54c0,52.04-22.847,95.194-57.116,95.194c-19.039,0-33.001-15.23-27.924-34.27
	c5.077-22.847,15.231-46.963,15.231-63.463c0-15.231-7.616-26.654-24.116-26.654c-19.039,0-34.27,20.308-34.27,45.693
	c0,16.5,5.077,27.923,5.077,27.923s-19.039,82.502-22.847,97.733c-6.347,29.192-1.27,64.731,0,67.271
	c0,2.538,2.538,2.538,3.808,1.269c1.27-2.538,24.115-30.462,31.731-58.386c2.538-7.615,12.692-49.501,12.692-49.501
	c6.346,11.424,24.116,22.847,43.154,22.847c57.116,0,96.463-52.039,96.463-121.848c0-53.309-44.424-102.81-112.963-102.81
	c-85.04,0-126.926,60.924-126.926,111.694C177.696,407.618,189.118,435.541,214.504,445.695z"/>
</svg>
