<?xml version="1.0" encoding="utf-8"?>
<!-- Generator: Adobe Illustrator 26.5.0, SVG Export Plug-In . SVG Version: 6.00 Build 0)  -->
<svg version="1.1" id="Layer_1" xmlns="http://www.w3.org/2000/svg" xmlns:xlink="http://www.w3.org/1999/xlink" x="0px" y="0px"
	 viewBox="0 0 156 40.7" style="enable-background:new 0 0 156 40.7;" xml:space="preserve">
<style type="text/css">
	.st0{fill:#FFFFFF;}
</style>
<g>
	<path class="st0" d="M0,39.8v-0.9l15.8-23.1H1.6V10h24.6v0.9L10.4,34h15.1v5.8H0z"/>
	<path class="st0" d="M44.3,40.7c-3,0-5.7-0.7-8-2s-4.1-3.1-5.3-5.4c-1.3-2.3-1.9-5-1.9-8c0-3.3,0.6-6.1,1.9-8.5s3-4.3,5.2-5.6
		s4.8-2,7.7-2c3.1,0,5.7,0.7,7.9,2.2c2.2,1.4,3.8,3.5,4.8,6.1s1.4,5.7,1.2,9.3h-6.6v-2.4c0-3.2-0.6-5.6-1.7-7.1
		c-1.1-1.5-2.9-2.2-5.3-2.2c-2.7,0-4.8,0.8-6.1,2.5c-1.3,1.7-2,4.1-2,7.4c0,3,0.7,5.4,2,7c1.3,1.7,3.3,2.5,5.8,2.5
		c1.6,0,3.1-0.4,4.2-1.1c1.2-0.7,2.1-1.8,2.7-3.2l6.6,2c-1.1,2.7-2.9,4.8-5.3,6.3C49.8,39.9,47.2,40.7,44.3,40.7z M34,26.8v-5h20.5
		v5H34z"/>
	<path class="st0" d="M63.1,39.8V10H69v9.3h0.8v20.6h-6.7V39.8z M83.8,39.8V25.5c0-0.9-0.1-2-0.2-3.1s-0.4-2.2-0.9-3.3
		c-0.5-1.1-1.2-1.9-2.1-2.6c-0.9-0.7-2.2-1-3.8-1c-0.8,0-1.7,0.1-2.5,0.4s-1.6,0.8-2.3,1.4s-1.2,1.6-1.6,2.8
		c-0.4,1.2-0.6,2.7-0.6,4.5l-3.9-1.7c0-2.5,0.5-4.8,1.5-6.9s2.4-3.7,4.4-4.9c1.9-1.2,4.3-1.8,7.1-1.8c2.2,0,4,0.4,5.5,1.1
		c1.4,0.7,2.6,1.7,3.4,2.8s1.5,2.4,1.9,3.6c0.4,1.3,0.7,2.5,0.8,3.7c0.1,1.2,0.2,2.1,0.2,2.8V40h-6.9V39.8z"/>
	<path class="st0" d="M109.2,40.7c-2.7,0-5.1-0.7-7.2-2.1s-3.6-3.3-4.7-5.6c-1.1-2.4-1.7-5.1-1.7-8c0-3,0.6-5.7,1.7-8.1
		s2.7-4.2,4.8-5.6c2.1-1.4,4.5-2.1,7.3-2.1s5.2,0.7,7.1,2.1s3.4,3.2,4.4,5.6s1.5,5.1,1.5,8.1s-0.5,5.6-1.5,8s-2.5,4.3-4.4,5.6
		C114.6,40,112.1,40.7,109.2,40.7z M110.2,34.7c1.8,0,3.2-0.4,4.3-1.2c1.1-0.8,1.9-2,2.4-3.4c0.5-1.5,0.8-3.2,0.8-5.1
		c0-2-0.3-3.7-0.8-5.1c-0.5-1.5-1.3-2.6-2.4-3.4c-1.1-0.8-2.4-1.2-4.1-1.2c-1.8,0-3.3,0.4-4.4,1.3c-1.1,0.9-2,2.1-2.6,3.5
		c-0.6,1.5-0.8,3.1-0.8,4.9s0.3,3.5,0.8,5s1.4,2.7,2.5,3.5S108.5,34.7,110.2,34.7z M117.7,39.8V18.9h-0.8V0h6.7v39.8H117.7z"/>
	<path class="st0" d="M139.7,40.7c-2.2,0-4-0.4-5.5-1.2s-2.6-1.9-3.4-3.3c-0.8-1.4-1.1-2.9-1.1-4.5c0-1.4,0.2-2.7,0.7-3.9
		c0.5-1.2,1.2-2.1,2.2-3c1-0.8,2.3-1.5,3.9-2.1c1.2-0.4,2.6-0.7,4.2-1s3.4-0.6,5.2-0.9c1.9-0.3,3.9-0.6,5.9-0.9l-2.4,1.4
		c0-2.1-0.4-3.6-1.4-4.6c-0.9-1-2.5-1.5-4.7-1.5c-1.3,0-2.6,0.3-3.9,0.9c-1.3,0.6-2.1,1.7-2.6,3.2l-6.1-1.9c0.7-2.5,2.1-4.5,4.2-6.1
		c2.1-1.5,4.9-2.3,8.4-2.3c2.6,0,5,0.4,7,1.3c2,0.9,3.5,2.3,4.5,4.3c0.5,1,0.9,2.1,1,3.2s0.2,2.3,0.2,3.6v18.3h-5.8v-6.5l1,1
		c-1.3,2.2-2.9,3.7-4.7,4.7C144.6,40.1,142.4,40.7,139.7,40.7z M141,35.3c1.5,0,2.8-0.3,3.9-0.8s1.9-1.2,2.6-2
		c0.6-0.8,1.1-1.5,1.3-2.2c0.4-0.8,0.5-1.8,0.6-2.9c0-1.1,0.1-2,0.1-2.7l2,0.6c-2,0.3-3.7,0.6-5.2,0.8c-1.4,0.2-2.7,0.5-3.7,0.7
		s-1.9,0.4-2.7,0.7c-0.8,0.3-1.4,0.6-2,1c-0.5,0.4-0.9,0.8-1.2,1.3s-0.4,1-0.4,1.7s0.2,1.4,0.6,1.9c0.4,0.6,0.9,1,1.6,1.3
		C139.1,35.2,140,35.3,141,35.3z"/>
</g>
</svg>
