<?xml version="1.0" encoding="utf-8"?>
<!-- Generator: Adobe Illustrator 16.0.3, SVG Export Plug-In . SVG Version: 6.00 Build 0)  -->
<!DOCTYPE svg PUBLIC "-//W3C//DTD SVG 1.1//EN" "http://www.w3.org/Graphics/SVG/1.1/DTD/svg11.dtd">
<svg version="1.1" id="Capa_1" xmlns="http://www.w3.org/2000/svg" xmlns:xlink="http://www.w3.org/1999/xlink" x="0px" y="0px"
	 width="800px" height="800px" viewBox="0 0 800 800" enable-background="new 0 0 800 800" xml:space="preserve">
<path fill="#317BBF" d="M621.411,426.923l-2.757-5.888c-11.885-25.4-15.342-52.305-16.378-76.17
	c-0.523-12.027-0.443-23.915-0.317-34.842c0.019-1.502,0.037-2.982,0.056-4.44c0.116-9.43,0.222-17.995,0.035-26.244
	c-0.79-32.497-10.99-64.143-29.467-91.243c-21.049-26.161-48.559-46.734-80.01-59.734l-0.547-0.226l-0.538-0.245
	c-42.572-19.393-88.978-29.425-135.959-29.373h-0.036c-59.12,0-115.695,23.056-157.312,63.903
	c-41.597,40.826-64.849,96.063-64.849,153.526c0,34.072,9.883,72.932,27.078,108.892c17.235,36.043,40.601,66.641,65.209,85.604
	l12.986,10.008v148.591c5.415,6.705,15.934,14.984,31.71,22.165c19.305,8.788,38.715,12.348,49.946,11.432l1.355-0.112h1.358
	c32.604,0,47.861-9.213,54.428-14.816c2.38-2.031,4.035-3.943,5.146-5.45v-92.257l41.614,10.757l0.021,0.005l0.017,0.005
	l0.021,0.006l0.203,0.05c0.259,0.063,0.702,0.17,1.32,0.313c1.236,0.286,3.162,0.713,5.674,1.218
	c5.038,1.01,12.369,2.313,21.208,3.405c17.943,2.213,40.833,3.39,62.937,0.146c22.293-3.269,40.872-10.587,53.65-22.813
	c11.898-11.388,22.375-30.46,22.375-65.398V489.2l28.021-4.41l0.023-0.003l0.135-0.023c0.1-0.019,0.241-0.044,0.427-0.079
	c0.184-0.033,0.406-0.076,0.667-0.126c1.053-0.209,2.687-0.554,4.711-1.057c4.148-1.03,9.448-2.602,14.615-4.782
	c5.363-2.262,9.224-4.613,11.498-6.616c0.459-0.405,0.78-0.729,1.002-0.971c-0.082-0.893-0.394-2.727-1.557-5.692
	c-1.82-4.639-4.932-9.999-8.915-15.544c-3.895-5.418-8.036-10.203-11.264-13.672c-1.588-1.708-2.893-3.031-3.755-3.885
	c-0.218-0.217-0.408-0.401-0.563-0.553c-0.149-0.147-0.27-0.262-0.358-0.346l-0.136-0.132l-0.019-0.015L621.411,426.923z
	 M415.883,633.048c0,0,13.363,3.454,33.333,5.877c59.011,7.162,175.707,5.325,175.707-121.229c0,0,55.047-8.661,60.622-40.121
	c5.573-31.459-36.699-70.669-36.699-70.669c-14.375-30.718-13.925-66.891-13.501-100.85c0.116-9.388,0.231-18.608,0.03-27.495
	c-0.952-39.41-13.45-77.715-36.002-110.335c-24.695-31.053-57.078-55.382-94.068-70.67c-46.936-21.38-98.066-32.429-149.812-32.371
	c-67.762,0-132.747,26.419-180.662,73.446C126.918,185.66,100,249.441,100,315.948c0,80.015,45.813,175.077,105.273,220.898v141.566
	c16.871,35.387,80.518,60.483,117.703,57.447c78.97,0,92.906-45.594,92.906-45.594V633.048z"/>
<path fill="#FFFFFF" d="M445.381,335.762c12.884,0,8.799-3.782,19.438-10.85c10.804,7.055,23.552,10.753,36.561,10.607
	l41.323-14.634c11.645-9.341,19.638-22.293,22.643-36.683c3.007-14.392,0.842-29.352-6.131-42.375
	c-6.974-13.025-18.334-23.322-32.176-29.17c-3.159-13.934-11.121-26.397-22.563-35.32L464.14,163.6h-4.542
	c-8.973-12.74-22.441-21.828-37.85-25.535l-69.815-4.731c-14.375,1.162-27.93,6.997-38.483,16.565
	c-4.986-1.144-10.09-1.737-15.215-1.768c-12.404,0.025-24.538,3.543-34.933,10.13c-10.397,6.588-18.61,15.963-23.652,26.993
	l-32.859,22.652c-8.176,10.782-12.577,23.833-12.556,37.233c-0.081,5.602,0.684,11.187,2.271,16.573
	c-8.622,10.885-13.257,24.263-13.17,38.006c-0.021,15.94,6.236,31.282,17.484,42.87c0.907,11.412,5.006,22.365,11.849,31.673
	c6.845,9.309,16.175,16.619,26.981,21.14c12.452,7.595,22.995,17.812,30.854,29.896c7.86,12.084,11.104,25.729,12.83,39.931h68.6
	v-66.292c-0.015-11.77,3.36-23.31,9.742-33.309c6.382-10,9.956-18.058,20.807-23.262c10.165-3.785,19.325-9.753,26.795-17.457
	C419.916,331.98,432.5,335.762,445.381,335.762z"/>
<path fill="#FFFFFF" d="M566.666,391.667c0,13.807-11.193,25-25,25s-25-11.193-25-25c0-13.807,11.193-25,25-25
	S566.666,377.86,566.666,391.667z"/>
<path fill="#FDFEFF" d="M350,533.333h-66.667V500H350V533.333z"/>
<path fill="#FDFEFF" d="M350,600h-66.667v-33.333H350V600z"/>
<path fill="#FDFEFF" d="M350,666.667h-66.667v-33.334H350V666.667z"/>
</svg>
