<?xml version="1.0" encoding="utf-8"?>
<!-- Generator: Adobe Illustrator 16.0.3, SVG Export Plug-In . SVG Version: 6.00 Build 0)  -->
<!DOCTYPE svg PUBLIC "-//W3C//DTD SVG 1.1//EN" "http://www.w3.org/Graphics/SVG/1.1/DTD/svg11.dtd">
<svg version="1.1" id="Capa_1" xmlns="http://www.w3.org/2000/svg" xmlns:xlink="http://www.w3.org/1999/xlink" x="0px" y="0px"
	 width="800px" height="800px" viewBox="0 0 800 800" enable-background="new 0 0 800 800" xml:space="preserve">
<g id="Brain_analyst">
	<path fill="#FFFFFF" d="M531.857,187.06c-0.22,0.003-0.439,0.004-0.658,0.004c-11.768,0-21.088-3.664-27.711-10.896
		c-1.405-1.537-2.661-3.205-3.752-4.979c-1.813-2.974-5.314-4.47-8.717-3.726c-24.569,5.632-39.921,30.116-34.288,54.685
		c4.643,20.25,22.375,34.81,43.141,35.422v0.034h17.16c12.644-6.316,14.357-20.284,14.576-23.086
		c-3.437-2.722-6.21-6.189-8.109-10.141c-1.925-4.338,0.032-9.416,4.37-11.34c4.284-1.901,9.302-0.018,11.278,4.232
		c0.102,0.202,1.986,3.85,5.043,4.798c1.992,0.616,4.572,0.029,7.672-1.75c4.091-2.407,9.357-1.042,11.765,3.049
		c2.406,4.091,1.041,9.358-3.05,11.765c-0.053,0.031-0.105,0.061-0.158,0.091c-3.724,2.229-7.879,3.637-12.19,4.13
		c-0.45,2.468-1.063,4.904-1.835,7.292c-1.451,4.368,0.914,9.084,5.281,10.535c0.838,0.278,1.715,0.421,2.597,0.425h26.917
		c6.735,0.07,59.274,2.28,62.586,54.106c0.219,2.959,2.691,5.245,5.659,5.228h15.663c2.955-0.004,5.414-2.271,5.659-5.216
		c0.807-9.391,3.7-29.536,13.944-44.384c2.448-3.703,1.587-8.672-1.965-11.334c-1.553-1.21-2.978-2.575-4.254-4.074
		c-10.527-12.35-7.039-28.906-6.607-30.753c1.09-4.62,5.717-7.481,10.337-6.392c4.589,1.082,7.449,5.66,6.41,10.26
		c-0.064,0.306-2.044,9.971,2.992,15.797c3.703,4.282,10.533,5.426,16.726,5.435c2.159,0.018,4.242-0.797,5.816-2.275
		c19.7-18.717,20.497-49.861,1.779-69.561c-3.949-4.157-8.596-7.592-13.729-10.148c-3.327-1.726-7.397-1.008-9.936,1.75
		c-8.371,9.662-20.56,15.166-33.344,15.057c-0.464,0-0.926-0.006-1.396-0.019l-0.373-0.019c-3.344-0.053-6.601,1.066-9.205,3.163
		c-2.413,2.229-3.717,5.87-3.877,10.824c-0.001,0.057-0.018,0.108-0.021,0.164c2.785,2.521,5.055,5.56,6.682,8.946
		c1.924,4.338-0.032,9.416-4.371,11.34c-4.284,1.901-9.301,0.018-11.277-4.232c-0.103-0.202-1.986-3.85-5.043-4.798
		c-1.993-0.616-4.573-0.03-7.672,1.75c-4.089,2.41-9.357,1.048-11.767-3.042c-2.409-4.089-1.048-9.357,3.041-11.767
		c0.056-0.033,0.112-0.065,0.169-0.097c4.128-2.498,8.803-3.951,13.619-4.234c0.864-6.782,4.083-13.044,9.093-17.696
		c6.001-5.126,13.715-7.797,21.601-7.48c8.529,0.37,16.718-3.378,22.014-10.075c1.9-2.317,2.376-5.491,1.237-8.263
		c-12.956-31.347-48.87-46.255-80.217-33.299c-2.609,1.079-5.142,2.336-7.579,3.764c-2.505,1.492-4.042,4.19-4.048,7.106
		c0.036,6.609,1.755,13.099,4.995,18.859c2.252,4.137,0.85,9.313-3.182,11.749c-4.116,2.358-9.365,0.933-11.724-3.183
		c-0.032-0.056-0.063-0.113-0.095-0.17c-3.934-7.026-6.335-14.806-7.045-22.826c-0.324-4.103-3.604-7.349-7.71-7.63
		c-1.107-0.075-2.224-0.113-3.351-0.113c-22.297,0.004-41.807,14.99-47.562,36.531c-0.646,2.409-0.166,4.98,1.305,6.995
		c0.327,0.445,0.679,0.871,1.054,1.276c3.35,3.614,8.409,5.323,15.438,5.252c0.034,0,0.068,0,0.101,0
		c4.746-0.027,8.616,3.799,8.643,8.545c0.027,4.746-3.799,8.616-8.545,8.643V187.06z"/>
	<path fill="#317BBF" d="M464.948,359.76h109.942c5.177,0,9.375-4.197,9.375-9.375s-4.198-9.375-9.375-9.375H464.948
		c-5.178,0-9.375,4.197-9.375,9.375S459.771,359.76,464.948,359.76z"/>
	<path fill="#317BBF" d="M464.948,396.871h62.309c5.177,0,9.375-4.197,9.375-9.375c0-5.177-4.198-9.375-9.375-9.375h-62.309
		c-5.178,0-9.375,4.198-9.375,9.375C455.573,392.673,459.771,396.871,464.948,396.871L464.948,396.871z"/>
	<path fill="#317BBF" d="M421.413,580.9l0.035-0.445c1.462-28.035-7.286-51.833-26.001-70.729
		c-45.512-45.953-136.528-48.565-161.798-48.369c-3.06,0.023-9.001,0.026-11.917,0.001c-24.899-0.217-116.389,2.254-162.06,48.368
		c-18.672,18.853-27.422,42.583-26.01,70.531c0.049,4.975,0.925,107.579-9.21,162.076c-2.699,14.764,7.082,28.921,21.847,31.619
		c1.626,0.298,3.276,0.445,4.929,0.443h355.757c15.006,0.007,27.177-12.151,27.184-27.157c0.001-1.445-0.114-2.889-0.343-4.316
		C428.524,709.894,416.697,627.99,421.413,580.9z M233.136,480.135c13.96-0.035,27.911,0.71,41.788,2.234
		c-14.32,40.022-41.87,57.561-51.683,62.729c-9.774-5.135-36.93-22.428-51.337-61.713c14.86-1.963,29.823-3.042,44.811-3.232
		C218.031,480.137,229.93,480.153,233.136,480.135L233.136,480.135z M44.677,752.569c-1.593-1.884-2.251-4.386-1.791-6.811
		c10.67-57.369,9.576-161.499,9.524-165.902l-0.013-0.378c-1.193-22.849,5.538-41.341,20.575-56.536
		c19.88-20.089,51.022-30.802,80.131-36.489c13.1,38.487,37.171,59.728,52.529,69.913c5.143,3.414,8.232,9.179,8.228,15.352v183.928
		h-89.688c5.285-31.903,7.081-64.287,5.354-96.578c-0.424-5.16-4.951-9-10.111-8.575c-5.119,0.421-8.946,4.883-8.583,10.006
		c1.575,31.828-0.331,63.732-5.685,95.146H51.229C48.696,755.647,46.293,754.52,44.677,752.569z M413.411,752.681
		c-1.596,1.894-3.95,2.979-6.426,2.965h-55.751c-5.354-31.414-7.26-63.318-5.685-95.146c0.366-5.165-3.523-9.648-8.688-10.015
		c-5.124-0.362-9.585,3.465-10.006,8.584c-1.727,32.291,0.069,64.675,5.354,96.578h-99.6v-183.93
		c-0.008-6.166,3.075-11.926,8.211-15.339c15.552-10.314,40.054-31.973,53.044-71.402c31.302,5.23,66.532,15.989,88.282,37.967
		c14.99,15.146,21.726,33.573,20.587,56.32c-4.704,47.528,5.858,124.773,12.58,166.631
		C415.719,748.326,415.022,750.813,413.411,752.681L413.411,752.681z"/>
	<path fill="#317BBF" d="M223.445,284.462c-46.641,0-84.586,35.969-84.586,80.182s37.945,80.183,84.586,80.183
		c46.64,0,84.585-35.97,84.585-80.183C308.03,320.431,270.084,284.462,223.445,284.462z M223.445,426.077
		c-36.303,0-65.836-27.56-65.836-61.433s29.533-61.432,65.836-61.432c36.302,0,65.835,27.558,65.835,61.432
		S259.746,426.077,223.445,426.077z"/>
	<path fill="#317BBF" d="M245.891,379.618h-44.893c-4.411,0.004-7.983,3.583-7.979,7.995c0.001,0.83,0.131,1.655,0.386,2.445
		c2.918,9.146,10.473,20.989,30.039,20.989s27.123-11.844,30.04-20.99c1.354-4.198-0.951-8.699-5.149-10.053
		C247.544,379.749,246.72,379.619,245.891,379.618z"/>
	<path fill="#317BBF" d="M267.5,646.228c-7.584-0.001-13.732,6.146-13.733,13.73c-0.001,7.585,6.147,13.733,13.731,13.733
		c7.584,0.001,13.732-6.147,13.733-13.731c0,0,0,0,0-0.001C281.232,652.376,275.083,646.228,267.5,646.228z"/>
	<path fill="#317BBF" d="M267.5,693.407c-7.584,0-13.732,6.147-13.733,13.731s6.147,13.732,13.731,13.733
		s13.732-6.147,13.733-13.731c0,0,0,0,0-0.001C281.232,699.556,275.084,693.408,267.5,693.407z"/>
	<path fill="#317BBF" d="M329.592,572.637h-36.669c-4.237,0-7.672,3.434-7.673,7.671c0,0.001,0,0.001,0,0.001v18.335
		c0,14.364,11.644,26.008,26.008,26.008c14.363,0,26.008-11.644,26.008-26.008V580.31c0-4.237-3.435-7.672-7.672-7.673
		C329.594,572.637,329.593,572.637,329.592,572.637z"/>
	<path fill="#317BBF" d="M369.252,442.467c-0.323-0.58-0.25-1.301,0.184-1.804l34.801-45.002c4.75-6.163,7.332-13.722,7.346-21.503
		V212.272c0-5.178-4.197-9.375-9.375-9.375s-9.375,4.197-9.375,9.375v161.885c-0.007,3.631-1.212,7.158-3.428,10.034l-34.801,45.001
		c-6.914,8.939-5.272,21.791,3.667,28.706c3.585,2.772,7.989,4.276,12.521,4.276h244.361c5.178,0,9.375-4.197,9.375-9.375
		s-4.197-9.375-9.375-9.375h-244.36C370.129,443.459,369.515,443.076,369.252,442.467z"/>
	<path fill="#317BBF" d="M740.853,25.604H427.985c-19.405,0.022-35.131,15.748-35.152,35.152v68.415
		c0,5.178,4.197,9.375,9.375,9.375s9.375-4.197,9.375-9.375V60.757c0.01-9.054,7.348-16.392,16.402-16.402h312.868
		c9.055,0.01,16.392,7.348,16.401,16.402v366.266c-0.01,9.055-7.348,16.392-16.401,16.401h-21.77c-5.178,0-9.375,4.197-9.375,9.375
		s4.197,9.375,9.375,9.375h21.77c19.405-0.021,35.13-15.746,35.151-35.151V60.757C775.983,41.352,760.258,25.626,740.853,25.604z"/>
	<path fill="#FFFFFF" d="M143.586,236.154h140.396c18.421-0.021,33.348-14.948,33.369-33.368v-23.5h115.481
		c5.178,0,9.375-4.197,9.375-9.375s-4.197-9.375-9.375-9.375H317.352v-31.814c-0.021-18.42-14.948-33.348-33.369-33.369H143.586
		c-18.421,0.021-33.349,14.948-33.369,33.369v74.064C110.239,221.207,125.166,236.134,143.586,236.154z M128.967,128.722
		c0.01-8.07,6.549-14.609,14.619-14.619h140.396c8.07,0.009,14.609,6.549,14.619,14.619v74.064
		c-0.01,8.07-6.549,14.609-14.619,14.618H143.586c-8.069-0.009-14.609-6.548-14.619-14.618V128.722z"/>
	<path fill="#317BBF" d="M161.615,155.734h104.473c5.177,0,9.375-4.197,9.375-9.375s-4.198-9.375-9.375-9.375H161.615
		c-5.178,0-9.375,4.197-9.375,9.375S156.437,155.734,161.615,155.734z"/>
	<path fill="#317BBF" d="M161.615,188.576h52.17c5.178,0,9.375-4.197,9.375-9.375s-4.197-9.375-9.375-9.375h-52.17
		c-5.178,0-9.375,4.197-9.375,9.375S156.437,188.576,161.615,188.576z"/>
	<path fill="#FFFFFF" d="M707.589,535.114h-13.687c0.021-0.263,0.039-0.526,0.039-0.795V470.59
		c-0.035-10.839-5.045-21.061-13.59-27.729l-37.218-28.846c-4.089-3.176-9.979-2.436-13.154,1.653
		c-3.177,4.09-2.436,9.979,1.653,13.155c0.005,0.004,0.01,0.007,0.014,0.011l37.219,28.847c3.978,3.104,6.311,7.863,6.326,12.909
		v63.729c0,0.269,0.019,0.532,0.041,0.795H600.25c-18.421,0.021-33.349,14.948-33.369,33.369v74.064
		c0.021,18.42,14.948,33.348,33.369,33.368h107.339c18.42-0.021,33.348-14.948,33.368-33.368v-74.064
		C740.938,550.063,726.01,535.136,707.589,535.114z M722.207,642.549c-0.01,8.069-6.549,14.608-14.618,14.618H600.25
		c-8.07-0.01-14.609-6.549-14.619-14.618v-74.064c0.009-8.07,6.549-14.61,14.619-14.619h107.339
		c8.069,0.009,14.609,6.549,14.618,14.619V642.549z"/>
	<path fill="#317BBF" d="M689.693,576.745h-71.415c-5.178,0-9.375,4.197-9.375,9.375s4.197,9.375,9.375,9.375h71.415
		c5.178,0,9.375-4.197,9.375-9.375S694.87,576.745,689.693,576.745z"/>
	<path fill="#317BBF" d="M660.979,609.588h-42.701c-5.178,0-9.375,4.197-9.375,9.375s4.197,9.375,9.375,9.375h42.702
		c5.177,0,9.375-4.197,9.375-9.375S666.156,609.588,660.979,609.588L660.979,609.588z"/>
</g>
</svg>
