<?xml version="1.0" encoding="utf-8"?>
<!-- Generator: Adobe Illustrator 16.0.3, SVG Export Plug-In . SVG Version: 6.00 Build 0)  -->
<!DOCTYPE svg PUBLIC "-//W3C//DTD SVG 1.1//EN" "http://www.w3.org/Graphics/SVG/1.1/DTD/svg11.dtd">
<svg version="1.1" id="Capa_1" xmlns="http://www.w3.org/2000/svg" xmlns:xlink="http://www.w3.org/1999/xlink" x="0px" y="0px"
	 width="800px" height="800px" viewBox="0 0 800 800" enable-background="new 0 0 800 800" xml:space="preserve">
<g id="_x35_25_x2C__key__x2C__keyboard_x2C__education_x2C__graduation">
	<g>
		<path fill="#FF7979" d="M665.625,314.063c17.266,0,31.25,13.984,31.25,31.25s-13.984,31.25-31.25,31.25s-31.25-13.984-31.25-31.25
			S648.36,314.063,665.625,314.063z"/>
		<path fill="#D65B5B" d="M641.016,362.891c0-17.266,13.984-31.25,31.25-31.25c9.954,0,18.798,4.664,24.52,11.911
			c-0.918-16.441-14.49-29.489-31.16-29.489c-17.266,0-31.25,13.984-31.25,31.25c0,7.311,2.526,14.019,6.729,19.339
			C641.072,364.065,641.016,363.486,641.016,362.891z"/>
		<path fill="#317BBF" d="M728.125,517.188v250H71.875v-250h500H728.125z"/>
		<polygon fill="#AFB9D2" points="89.453,535.547 589.453,535.547 728.125,535.547 728.125,517.188 571.875,517.188 71.875,517.188 
			71.875,767.188 89.453,767.188 		"/>
		<path fill="#FFFFFF" d="M665.625,142.188L588.063,222.5c-0.018-17.922-0.125-35.672,0.17-54.891
			c-131.529-54.906-249.982-52.016-360.107-5.719c-0.266,17.406-0.156,35.078-0.031,52.75l-0.344,1.125L150,142.188L410.375,32.813
			L665.625,142.188z"/>
		<g>
			<g>
				<g>
					<path fill="#414A56" d="M588.053,187.067c-0.033,7.673-0.026,15.195-0.013,22.673c0.022-7.369,0.073-14.863,0.192-22.6
						C588.175,187.116,588.114,187.092,588.053,187.067z"/>
				</g>
				<g>
					<polygon fill="#414A56" points="410.375,52.344 652.284,156.001 665.625,142.188 410.375,32.813 150,142.188 164.294,155.714 
											"/>
				</g>
			</g>
		</g>
		<path fill="#FFFFFF" d="M431.25,248.266c-67.859-2.141-135.547,7.297-203.125,26.266c0.297-19.766,0.125-39.828-0.031-59.891
			c-0.125-17.672-0.234-35.344,0.031-52.75c110.125-46.297,228.577-49.188,360.109,5.719c-0.296,19.219-0.188,36.969-0.171,54.891
			c0.031,16.75-0.032,33.641-0.563,52.031C535.297,258.359,483.234,249.906,431.25,248.266z"/>
		<path fill="#414A56" d="M243.894,270.3c0.045-14.058-0.065-28.215-0.175-42.378c-0.125-17.672-0.234-35.344,0.031-52.75
			c105.719-44.444,219.12-48.853,344.392-0.561c0.026-2.314,0.055-4.647,0.093-7.001c-131.531-54.906-249.984-52.016-360.109-5.719
			c-0.266,17.406-0.156,35.078-0.031,52.75c0.156,20.063,0.328,40.125,0.031,59.891C233.381,273.056,238.638,271.659,243.894,270.3z
			"/>
		<rect x="634.375" y="689.063" width="31.25" height="31.25"/>
		<rect x="634.375" y="626.563" width="31.25" height="31.25"/>
		<rect x="634.375" y="564.063" width="31.25" height="31.25"/>
		<rect x="571.875" y="689.063" width="31.25" height="31.25"/>
		<rect x="571.875" y="626.563" width="31.25" height="31.25"/>
		<rect x="571.875" y="564.063" width="31.25" height="31.25"/>
		<rect x="509.375" y="689.063" width="31.25" height="31.25"/>
		<rect x="509.375" y="626.563" width="31.25" height="31.25"/>
		<rect x="509.375" y="564.063" width="31.25" height="31.25"/>
		<rect x="259.375" y="689.063" width="218.75" height="31.25"/>
		<rect x="446.875" y="626.563" width="31.25" height="31.25"/>
		<rect x="446.875" y="564.063" width="31.25" height="31.25"/>
		<rect x="384.375" y="626.563" width="31.25" height="31.25"/>
		<rect x="384.375" y="564.063" width="31.25" height="31.25"/>
		<rect x="321.875" y="626.563" width="31.25" height="31.25"/>
		<rect x="321.875" y="564.063" width="31.25" height="31.25"/>
		<rect x="259.375" y="626.563" width="31.25" height="31.25"/>
		<rect x="259.375" y="564.063" width="31.25" height="31.25"/>
		<rect x="196.875" y="689.063" width="31.25" height="31.25"/>
		<rect x="196.875" y="626.563" width="31.25" height="31.25"/>
		<rect x="196.875" y="564.063" width="31.25" height="31.25"/>
		<rect x="134.375" y="689.063" width="31.25" height="31.25"/>
		<rect x="134.375" y="626.563" width="31.25" height="31.25"/>
		<rect x="134.375" y="564.063" width="31.25" height="31.25"/>
		<path d="M588.061,230.313c-1.953,0-3.909-0.728-5.427-2.192c-3.103-2.997-3.188-7.943-0.192-11.047l69.694-72.166L410.344,41.298
			L164.073,144.75l65.82,62.289c0.162,0.039,0.325,0.083,0.486,0.131c4.126,1.262,6.446,5.631,5.184,9.756l-0.344,1.125
			c-0.79,2.586-2.863,4.578-5.477,5.269c-2.609,0.692-5.398-0.021-7.362-1.88l-77.75-73.578c-1.919-1.815-2.789-4.477-2.315-7.073
			c0.472-2.599,2.225-4.781,4.659-5.803L407.35,25.611c1.954-0.82,4.158-0.813,6.103,0.022l255.25,109.375
			c2.361,1.011,4.072,3.119,4.582,5.636c0.509,2.518-0.255,5.124-2.039,6.972l-77.563,80.313
			C592.15,229.514,590.108,230.313,588.061,230.313z"/>
		<path d="M228.125,282.344c-1.705,0-3.385-0.558-4.766-1.622c-1.953-1.503-3.083-3.842-3.047-6.308
			c0.286-19.048,0.131-38.749-0.018-57.8l-0.016-1.913c-0.109-15.472-0.245-34.72,0.033-52.93c0.047-3.102,1.925-5.881,4.784-7.083
			c56.362-23.695,114.415-35.709,172.547-35.709c62.622,0,127.759,13.936,193.599,41.42c2.949,1.231,4.852,4.134,4.801,7.33
			c-0.238,15.613-0.212,30.483-0.184,44.864l0.016,9.897c0.029,15.948-0.021,33.323-0.566,52.266
			c-0.07,2.44-1.277,4.709-3.266,6.129c-1.987,1.42-4.527,1.828-6.855,1.106c-50.213-15.555-102.088-24.275-154.185-25.919
			c-6.198-0.195-12.499-0.293-18.727-0.293c-58.685,0-119.932,8.839-182.041,26.273
			C229.542,282.249,228.831,282.344,228.125,282.344z M235.87,167.139c-0.183,16.486-0.063,33.509,0.036,47.445l0.014,1.908
			c0.124,15.709,0.25,31.856,0.132,47.771c60.05-16.002,119.282-24.108,176.225-24.108c6.394,0,12.857,0.102,19.219,0.301
			c50.095,1.582,99.978,9.53,148.446,23.646c0.304-14.831,0.331-28.675,0.308-41.589l-0.016-9.891
			c-0.024-12.811-0.048-26.01,0.114-39.816c-62.256-25.353-123.701-38.205-182.706-38.205
			C343.222,134.603,288.821,145.548,235.87,167.139z"/>
		<path fill="#317BBF" d="M665.625,321.875c-4.316,0-7.813-3.499-7.813-7.813V142.188c0-4.314,3.496-7.813,7.813-7.813
			c4.315,0,7.813,3.499,7.813,7.813v171.875C673.438,318.376,669.941,321.875,665.625,321.875z"/>
		<path d="M665.625,384.375c-21.539,0-39.063-17.523-39.063-39.063s17.523-39.063,39.063-39.063s39.063,17.523,39.063,39.063
			S687.164,384.375,665.625,384.375z M665.625,321.875c-12.924,0-23.438,10.514-23.438,23.438s10.514,23.438,23.438,23.438
			c12.923,0,23.438-10.514,23.438-23.438S678.548,321.875,665.625,321.875z"/>
		<path fill="#317BBF" d="M571.875,525c-4.316,0-7.813-3.497-7.813-7.813V462.5c0-12.523-4.875-24.295-13.727-33.148
			c-8.854-8.852-20.625-13.727-33.148-13.727H165.625c-12.526,0-24.299-4.875-33.15-13.725c-8.85-8.852-13.725-20.624-13.725-33.15
			c0-25.847,21.028-46.875,46.875-46.875h226.563c17.23,0,31.25-14.019,31.25-31.25v-85.938c0-4.314,3.496-7.813,7.813-7.813
			c4.315,0,7.813,3.499,7.813,7.813v85.938c0,25.847-21.028,46.875-46.875,46.875H165.625c-17.231,0-31.25,14.019-31.25,31.25
			c0,8.352,3.25,16.202,9.148,22.102S157.274,400,165.625,400h351.563c16.696,0,32.392,6.5,44.195,18.305
			c11.805,11.803,18.305,27.498,18.305,44.195v54.688C579.688,521.503,576.191,525,571.875,525z"/>
		<path d="M728.125,775H71.875c-4.314,0-7.813-3.497-7.813-7.813v-250c0-4.315,3.498-7.813,7.813-7.813h656.25
			c4.315,0,7.813,3.497,7.813,7.813v250C735.938,771.503,732.441,775,728.125,775z M79.688,759.375h640.625V525H79.688V759.375z"/>
	</g>
</g>
<g id="Layer_1">
</g>
</svg>
