<?xml version="1.0" encoding="utf-8"?>
<!-- Generator: Adobe Illustrator 16.0.3, SVG Export Plug-In . SVG Version: 6.00 Build 0)  -->
<!DOCTYPE svg PUBLIC "-//W3C//DTD SVG 1.1//EN" "http://www.w3.org/Graphics/SVG/1.1/DTD/svg11.dtd">
<svg version="1.1" id="Layer_1" xmlns="http://www.w3.org/2000/svg" xmlns:xlink="http://www.w3.org/1999/xlink" x="0px" y="0px"
	 width="800px" height="800px" viewBox="0 0 800 800" enable-background="new 0 0 800 800" xml:space="preserve">
<title></title>
<path fill="#317BBF" d="M268.347,485.211L254.468,506c14.298,9.538,29.497,17.65,45.379,24.219l9.546-23.107
	C295.027,501.174,281.279,493.839,268.347,485.211z"/>
<path fill="#317BBF" d="M271.505,94.356l-13.965-20.74c-14.251,9.603-27.53,20.574-39.648,32.757l17.725,17.627
	C246.585,112.975,258.606,103.046,271.505,94.356z"/>
<path fill="#317BBF" d="M180.676,378.803c-5.974-14.35-10.519-29.253-13.568-44.495l-24.512,4.901
	c3.371,16.858,8.398,33.342,15.009,49.212L180.676,378.803z"/>
<path fill="#317BBF" d="M146.377,240.877c-3.245,16.679-4.879,33.631-4.877,50.623v0.525l25-0.525
	c-0.003-15.385,1.475-30.735,4.412-45.837L146.377,240.877z"/>
<path fill="#317BBF" d="M491.076,506.915c-14.353,5.959-29.259,10.487-44.501,13.52l4.871,24.524
	c16.86-3.355,33.349-8.366,49.225-14.96L491.076,506.915z"/>
<path fill="#317BBF" d="M185.348,146.2c-9.523,14.307-17.619,29.514-24.17,45.404l23.12,9.521
	c5.921-14.375,13.243-28.132,21.862-41.07L185.348,146.2z"/>
<path fill="#317BBF" d="M400.262,550L400,525c-15.467,0.004-30.897-1.492-46.075-4.468l-4.822,24.536
	c16.767,3.282,33.812,4.934,50.897,4.932H400.262z"/>
<path fill="#317BBF" d="M549.069,72.695c-14.316-9.508-29.532-17.585-45.429-24.115l-9.497,23.12
	c14.378,5.913,28.142,13.222,41.095,21.82L549.069,72.695z"/>
<path fill="#317BBF" d="M585.711,473.022l-17.688-17.676c-10.995,11.003-23.037,20.907-35.955,29.571l13.928,20.765
	C560.263,496.11,573.565,485.172,585.711,473.022z"/>
<path fill="#317BBF" d="M454.354,33.828C437.762,30.613,420.9,28.997,404,29h-0.788L404,54c15.298-0.002,30.561,1.459,45.58,4.364
	L454.354,33.828z"/>
<path fill="#317BBF" d="M356.936,58.663l-4.92-24.512c-16.854,3.386-33.333,8.431-49.194,15.063l9.644,23.059
	C326.805,66.284,341.7,61.725,356.936,58.663z"/>
<path fill="#317BBF" d="M662.5,287.5v-1.063l-25,1.063c0.001,15.55-1.51,31.063-4.511,46.32l24.523,4.846
	C660.831,321.813,662.501,304.677,662.5,287.5z"/>
<path fill="#317BBF" d="M621.725,144.814c-9.618-14.239-20.602-27.506-32.794-39.613l-17.615,17.738
	c11.039,10.962,20.983,22.974,29.693,35.864L621.725,144.814z"/>
<path fill="#317BBF" d="M232.33,455.707c-11.016-10.986-20.935-23.021-29.614-35.932l-20.752,13.952
	c9.591,14.257,20.548,27.546,32.715,39.679L232.33,455.707z"/>
<path fill="#317BBF" d="M657.3,235.242c-3.41-16.849-8.472-33.32-15.112-49.176l-23.06,9.668
	c6.008,14.336,10.587,29.229,13.672,44.464L657.3,235.242z"/>
<path fill="#317BBF" d="M642.602,387.915l-23.095-9.57c-5.96,14.363-13.313,28.106-21.955,41.034l20.789,13.892
	C627.89,418.98,636.016,403.789,642.602,387.915z"/>
<path fill="#FCFCFC" d="M393.75,477.296V218.021c-16.82,17.296-44.477,17.682-61.771,0.862
	c-8.475-8.241-13.247-19.563-13.229-31.384h12.5c0,17.259,13.99,31.25,31.25,31.25c17.259,0,31.25-13.991,31.25-31.25V97.704
	c-10.843-6.619-23.289-10.147-35.992-10.204c-40.701,0.727-73.115,34.298-72.413,75c0,0.377,0.05,0.741,0.055,1.116
	c-35.394,6.71-60.86,37.863-60.399,73.884c-0.047,18.357,6.54,36.114,18.548,50c-12.008,13.886-18.595,31.643-18.548,50
	c0,36.09,23.602,72.689,59.292,74.798c16.371-5.31,25.337-22.885,20.027-39.255c-4.177-12.878-16.19-21.586-29.729-21.548v-12.5
	c24.095-0.067,43.683,19.41,43.75,43.505c0.054,18.871-12.033,35.638-29.953,41.553c3.758,35.646,33.532,62.877,69.371,63.447
	C370.461,487.443,382.907,483.914,393.75,477.296z"/>
<path fill="#FFFFFF" d="M575,337.5c0.046-18.357-6.541-36.114-18.549-50c12.008-13.886,18.595-31.643,18.549-50
	c0-35.278-22.54-71.082-56.89-74.646c-17.217,0.673-30.628,15.176-29.954,32.393c0.655,16.764,14.451,30.007,31.228,29.978v12.5
	c-24.135,0.031-43.725-19.509-43.755-43.645c-0.027-21.183,15.142-39.334,35.993-43.07c-3.732-35.672-33.519-62.938-69.381-63.51
	c-12.703,0.057-25.149,3.585-35.991,10.204v196.774c16.819-17.296,44.476-17.682,61.771-0.862
	c8.475,8.241,13.247,19.563,13.229,31.384h-12.5c0-17.259-13.991-31.25-31.25-31.25c-17.26,0-31.25,13.991-31.25,31.25v152.296
	c10.842,6.618,23.288,10.147,35.991,10.204c40.702-0.727,73.115-34.298,72.413-75c0-0.377-0.05-0.741-0.055-1.116
	C549.993,404.674,575.461,373.521,575,337.5z"/>
<path fill="#317BBF" d="M737.5,337.5h-2.397c-21.479,1.82-38.275,19.291-39.247,40.826l-30.864,158.848
	c16.894,9.299,23.051,30.532,13.752,47.426c-1.596,2.899-3.595,5.557-5.938,7.893l-80.018,67.492l-8.057-9.558l79.626-67.133
	c4.028-4.186,6.258-9.78,6.214-15.589c0.016-6.894-3.136-13.413-8.547-17.685c-9.28-7.311-22.286-7.569-31.851-0.634l-94.811,68.751
	c-6.497,4.57-10.363,12.018-10.362,19.96V775h125v-35.178l87.824-55.912c24.316-18.284,38.19-47.275,37.176-77.683l-0.211-220.846
	C774.764,358.928,759.4,337.5,737.5,337.5z"/>
<path fill="#317BBF" d="M62.176,683.91L150,739.822V775h125V638.098c0-7.942-3.866-15.39-10.362-19.96l-94.811-68.751
	c-9.564-6.936-22.571-6.677-31.852,0.634c-5.411,4.271-8.562,10.791-8.547,17.685c-0.044,5.809,2.187,11.403,6.214,15.589
	l79.626,67.133l-8.057,9.558l-80.018-67.492c-13.688-13.39-13.932-35.341-0.543-49.03c2.452-2.506,5.27-4.626,8.356-6.288
	l-30.864-158.848c-0.972-21.535-17.768-39.006-39.247-40.826H62.5c-21.9,0-37.265,21.428-37.29,47.881L25,606.228
	C23.985,636.635,37.859,665.627,62.176,683.91z"/>
</svg>
